<svg width="538" height="163" viewBox="0 0 538 163" fill="none" xmlns="http://www.w3.org/2000/svg">
<rect width="538" height="162.8" fill="#1F0A00"/>
<rect x="0.5" y="0.5" width="537" height="161.8" stroke="#F4EFEC" stroke-opacity="0.2"/>
<rect x="16" y="13" width="40" height="40" rx="8.33333" fill="url(#paint0_linear_198_1000)"/>
<path fill-rule="evenodd" clip-rule="evenodd" d="M43.6012 28.0675C44.4933 28.7482 45.4114 28.907 46.7752 27.5432C47.3147 27.0037 50.8146 21.3296 49.473 19.9887C48.1321 18.6478 42.7274 21.8775 41.9177 22.6865C40.5531 24.0518 40.7142 24.9706 41.3972 25.8635L40.8584 26.4023C40.6085 26.6468 40.4102 26.9389 40.275 27.2614C40.1399 27.5838 40.0707 27.93 40.0716 28.2797C40.0716 28.9093 40.2845 29.4717 40.5012 29.9052C40.8493 30.602 41.4193 31.3506 41.8925 31.9718C41.982 32.0888 42.067 32.2008 42.1474 32.3076C42.735 33.0914 43.1219 33.6828 43.2708 34.1613C43.3364 34.3704 43.3295 34.4819 43.3196 34.5322C43.3072 34.5861 43.2832 34.6366 43.2494 34.6803C43.0968 34.623 42.8419 34.4903 42.4725 34.2155C41.5834 33.5554 40.5516 32.4831 39.3756 31.259L39.1741 31.0499C37.9882 29.8174 36.642 28.4323 35.3629 27.5776C34.7218 27.1502 33.9556 26.7533 33.1223 26.6549C32.6545 26.5935 32.179 26.6422 31.7334 26.7971C31.2878 26.952 30.8846 27.2088 30.5558 27.547C29.888 28.2148 29.5636 29.0337 29.556 29.9021C29.5484 30.7126 29.814 31.4742 30.1383 32.1229C30.7771 33.3997 31.8898 34.71 32.8704 35.8319L33.3176 36.3402C34.1831 37.3231 34.9226 38.1649 35.3972 38.8983C35.5407 39.1211 35.6323 39.2936 35.6903 39.421C35.5194 39.4103 35.3506 39.3774 35.1881 39.3233C34.5303 39.1219 33.7191 38.667 32.7918 38.0733C32.5076 37.8897 32.2247 37.704 31.9432 37.5162C31.3265 37.1079 30.6878 36.6843 30.1574 36.3867C29.7605 36.1646 29.282 35.9265 28.7951 35.8128C28.3327 35.7044 27.4421 35.6213 26.74 36.3234C26.1218 36.9415 25.9173 37.681 25.8539 38.287C25.8043 38.7639 25.8341 39.2806 25.8562 39.6538L25.8654 39.8194C25.9051 40.5673 25.8616 40.9061 25.7143 41.1374C25.5311 41.3472 25.3319 41.6128 25.1114 41.9456C25.0595 42.0242 24.9366 42.1837 24.7733 42.3966C23.9834 43.4246 22.2343 45.7011 22.7654 46.2322C23.4065 46.8733 27.0368 44.2816 27.6199 43.6985C28.1312 43.1872 28.3808 42.798 28.4609 42.479C29.0027 41.4304 28.9493 40.3383 28.9142 39.6591C28.9106 39.5828 28.9066 39.5108 28.902 39.4432L28.8883 39.1791C29.2607 39.4004 29.6613 39.6668 30.1154 39.9682C30.4298 40.1766 30.7702 40.4032 31.1457 40.6428C32.079 41.2419 33.1986 41.9074 34.2945 42.2424C35.3888 42.5782 36.893 42.698 38.0569 41.5342C38.7529 40.8382 38.9177 39.9598 38.7849 39.1638C38.6666 38.4541 38.3156 37.7909 37.9607 37.2414C37.3517 36.2997 36.4313 35.2549 35.5827 34.2926L35.1683 33.8217C34.1457 32.6541 33.3039 31.6276 32.8689 30.7576C32.6567 30.3333 32.6071 30.0693 32.6079 29.9311C32.6087 29.8518 32.6186 29.8014 32.7147 29.7052C32.7249 29.6946 32.7308 29.6877 32.7323 29.6846L32.7353 29.6808L32.7399 29.6816C32.743 29.6831 32.7509 29.6846 32.7636 29.6862C32.9009 29.703 33.1917 29.7984 33.6664 30.1158C34.6173 30.7508 35.7269 31.8711 36.9739 33.1662L37.2441 33.447C38.3446 34.5933 39.5473 35.8456 40.6516 36.666C41.2453 37.1071 41.9589 37.5398 42.735 37.7009C43.6142 37.8833 44.559 37.7024 45.3069 36.9553C45.8304 36.431 46.1784 35.8136 46.3142 35.1214C46.4478 34.4445 46.3577 33.8042 46.1845 33.2509C45.8571 32.2023 45.1466 31.2201 44.5895 30.4768C44.476 30.3252 44.3679 30.182 44.2652 30.0471C43.792 29.4214 43.4394 28.9566 43.2311 28.5399C43.2219 28.5216 43.3845 28.3232 43.6012 28.0675ZM44.269 23.7961C44.2166 23.8523 44.1534 23.8974 44.0832 23.9287C44.013 23.96 43.9372 23.9768 43.8603 23.9782C43.7835 23.9795 43.7071 23.9654 43.6359 23.9366C43.5646 23.9078 43.4998 23.865 43.4455 23.8106C43.3911 23.7563 43.3483 23.6915 43.3195 23.6203C43.2907 23.549 43.2766 23.4727 43.2779 23.3958C43.2793 23.319 43.2961 23.2432 43.3274 23.173C43.3587 23.1027 43.4038 23.0396 43.46 22.9872C43.5685 22.8861 43.712 22.831 43.8603 22.8336C44.0086 22.8362 44.1501 22.8963 44.2549 23.0012C44.3598 23.106 44.4199 23.2475 44.4225 23.3958C44.4251 23.5441 44.3701 23.6876 44.269 23.7961ZM45.561 26.2359C45.6134 26.2922 45.6766 26.3373 45.7468 26.3685C45.817 26.3998 45.8928 26.4167 45.9697 26.418C46.0465 26.4194 46.1228 26.4052 46.1941 26.3764C46.2654 26.3477 46.3301 26.3048 46.3845 26.2505C46.4388 26.1961 46.4817 26.1314 46.5105 26.0601C46.5392 25.9888 46.5534 25.9125 46.552 25.8356C46.5507 25.7588 46.5339 25.683 46.5026 25.6128C46.4713 25.5426 46.4262 25.4794 46.3699 25.427C46.2614 25.3259 46.1179 25.2708 45.9697 25.2734C45.8214 25.2761 45.6799 25.3361 45.575 25.441C45.4702 25.5459 45.4101 25.6873 45.4075 25.8356C45.4049 25.9839 45.4599 26.1274 45.561 26.2359Z" fill="#F4EFEC"/>
<path d="M28.7969 85.6797H30.2383C30.1211 86.8281 29.8047 87.8203 29.2891 88.6562C28.7734 89.4844 28.0703 90.1211 27.1797 90.5664C26.2891 91.0117 25.2148 91.2344 23.957 91.2344C22.9883 91.2344 22.1094 91.0508 21.3203 90.6836C20.5391 90.3164 19.8672 89.7969 19.3047 89.125C18.7422 88.4453 18.3086 87.6328 18.0039 86.6875C17.6992 85.7422 17.5469 84.6914 17.5469 83.5352V81.4023C17.5469 80.2461 17.6992 79.1992 18.0039 78.2617C18.3086 77.3164 18.7461 76.5039 19.3164 75.8242C19.8867 75.1445 20.5703 74.6211 21.3672 74.2539C22.1641 73.8867 23.0625 73.7031 24.0625 73.7031C25.2734 73.7031 26.3203 73.9258 27.2031 74.3711C28.0859 74.8086 28.7812 75.4414 29.2891 76.2695C29.8047 77.0977 30.1211 78.0977 30.2383 79.2695H28.7969C28.6875 78.3477 28.4453 77.5664 28.0703 76.9258C27.6953 76.2852 27.1758 75.7969 26.5117 75.4609C25.8555 75.1172 25.0391 74.9453 24.0625 74.9453C23.2656 74.9453 22.5547 75.0977 21.9297 75.4023C21.3047 75.707 20.7734 76.1445 20.3359 76.7148C19.8984 77.2773 19.5625 77.9531 19.3281 78.7422C19.1016 79.5312 18.9883 80.4102 18.9883 81.3789V83.5352C18.9883 84.4727 19.0977 85.3359 19.3164 86.125C19.5352 86.9141 19.8555 87.5977 20.2773 88.1758C20.707 88.7539 21.2305 89.2031 21.8477 89.5234C22.4648 89.8438 23.168 90.0039 23.957 90.0039C24.9648 90.0039 25.8047 89.8438 26.4766 89.5234C27.1562 89.1953 27.6836 88.7109 28.0586 88.0703C28.4336 87.4297 28.6797 86.6328 28.7969 85.6797ZM34.8203 80.418V91H33.4258V78.3203H34.7852L34.8203 80.418ZM39.3086 78.2266L39.2734 79.5156C39.1172 79.4922 38.9648 79.4727 38.8164 79.457C38.668 79.4414 38.5078 79.4336 38.3359 79.4336C37.7266 79.4336 37.1914 79.5469 36.7305 79.7734C36.2773 79.9922 35.8945 80.3008 35.582 80.6992C35.2695 81.0898 35.0312 81.5508 34.8672 82.082C34.7031 82.6055 34.6094 83.168 34.5859 83.7695L34.0703 83.9688C34.0703 83.1406 34.1562 82.3711 34.3281 81.6602C34.5 80.9492 34.7617 80.3281 35.1133 79.7969C35.4727 79.2578 35.9219 78.8398 36.4609 78.543C37.0078 78.2383 37.6484 78.0859 38.3828 78.0859C38.5625 78.0859 38.7383 78.1016 38.9102 78.1328C39.0898 78.1562 39.2227 78.1875 39.3086 78.2266ZM48.7539 88.7266V82.1875C48.7539 81.5859 48.6289 81.0664 48.3789 80.6289C48.1289 80.1914 47.7617 79.8555 47.2773 79.6211C46.793 79.3867 46.1953 79.2695 45.4844 79.2695C44.8281 79.2695 44.2422 79.3867 43.7266 79.6211C43.2188 79.8477 42.8164 80.1562 42.5195 80.5469C42.2305 80.9297 42.0859 81.3555 42.0859 81.8242L40.6797 81.8125C40.6797 81.3359 40.7969 80.875 41.0312 80.4297C41.2656 79.9844 41.5977 79.5859 42.0273 79.2344C42.457 78.8828 42.9688 78.6055 43.5625 78.4023C44.1641 78.1914 44.8242 78.0859 45.543 78.0859C46.4492 78.0859 47.2461 78.2383 47.9336 78.543C48.6289 78.8477 49.1719 79.3047 49.5625 79.9141C49.9531 80.5234 50.1484 81.2891 50.1484 82.2109V88.3398C50.1484 88.7773 50.1797 89.2305 50.2422 89.6992C50.3125 90.168 50.4102 90.5547 50.5352 90.8594V91H49.0469C48.9531 90.7188 48.8789 90.3672 48.8242 89.9453C48.7773 89.5156 48.7539 89.1094 48.7539 88.7266ZM49.082 83.6172L49.1055 84.6953H46.3516C45.6328 84.6953 44.9883 84.7617 44.418 84.8945C43.8555 85.0195 43.3789 85.207 42.9883 85.457C42.5977 85.6992 42.2969 85.9922 42.0859 86.3359C41.8828 86.6797 41.7812 87.0703 41.7812 87.5078C41.7812 87.9609 41.8945 88.375 42.1211 88.75C42.3555 89.125 42.6836 89.4258 43.1055 89.6523C43.5352 89.8711 44.043 89.9805 44.6289 89.9805C45.4102 89.9805 46.0977 89.8359 46.6914 89.5469C47.293 89.2578 47.7891 88.8789 48.1797 88.4102C48.5703 87.9414 48.832 87.4297 48.9648 86.875L49.5742 87.6836C49.4727 88.0742 49.2852 88.4766 49.0117 88.8906C48.7461 89.2969 48.3984 89.6797 47.9688 90.0391C47.5391 90.3906 47.0312 90.6797 46.4453 90.9062C45.8672 91.125 45.2109 91.2344 44.4766 91.2344C43.6484 91.2344 42.9258 91.0781 42.3086 90.7656C41.6992 90.4531 41.2227 90.0273 40.8789 89.4883C40.543 88.9414 40.375 88.3242 40.375 87.6367C40.375 87.0117 40.5078 86.4531 40.7734 85.9609C41.0391 85.4609 41.4219 85.0391 41.9219 84.6953C42.4297 84.3438 43.0391 84.0781 43.75 83.8984C44.4688 83.7109 45.2734 83.6172 46.1641 83.6172H49.082ZM57.4258 88.0352L60.4844 78.3203H61.4688L60.8828 80.9336L57.6836 91H56.6992L57.4258 88.0352ZM54.25 78.3203L56.9336 88.0938L57.5078 91H56.4883L52.8086 78.3203H54.25ZM65.2773 88.0586L67.8906 78.3203H69.332L65.6523 91H64.6445L65.2773 88.0586ZM61.668 78.3203L64.6797 87.9531L65.4414 91H64.457L61.1875 80.9219L60.6367 78.3203H61.668ZM73.5859 73V91H72.1914V73H73.5859ZM78.9766 78.3203V91H77.582V78.3203H78.9766ZM77.3359 74.6641C77.3359 74.3906 77.418 74.1641 77.582 73.9844C77.7539 73.7969 77.9922 73.7031 78.2969 73.7031C78.5859 73.7031 78.8164 73.7969 78.9883 73.9844C79.168 74.1641 79.2578 74.3906 79.2578 74.6641C79.2578 74.9141 79.168 75.1328 78.9883 75.3203C78.8164 75.5 78.5859 75.5898 78.2969 75.5898C77.9922 75.5898 77.7539 75.5 77.582 75.3203C77.418 75.1328 77.3359 74.9141 77.3359 74.6641ZM84.2031 81.0273V91H82.8086V78.3203H84.1445L84.2031 81.0273ZM83.8867 83.875L83.2656 83.5234C83.3125 82.7734 83.4648 82.0703 83.7227 81.4141C83.9805 80.7578 84.3281 80.1797 84.7656 79.6797C85.2109 79.1797 85.7305 78.7891 86.3242 78.5078C86.9258 78.2266 87.5898 78.0859 88.3164 78.0859C88.9492 78.0859 89.5156 78.1719 90.0156 78.3438C90.5156 78.5156 90.9414 78.7891 91.293 79.1641C91.6445 79.5391 91.9102 80.0195 92.0898 80.6055C92.2773 81.1914 92.3711 81.9062 92.3711 82.75V91H90.9648V82.7383C90.9648 81.8633 90.8438 81.1797 90.6016 80.6875C90.3594 80.1875 90.0156 79.832 89.5703 79.6211C89.125 79.4102 88.5977 79.3047 87.9883 79.3047C87.3164 79.3047 86.7266 79.4531 86.2188 79.75C85.7188 80.0391 85.2969 80.418 84.9531 80.8867C84.6172 81.3477 84.3594 81.8438 84.1797 82.375C84 82.8984 83.9023 83.3984 83.8867 83.875ZM104.348 78.3203H105.648V90.7773C105.648 91.8789 105.438 92.8242 105.016 93.6133C104.602 94.4023 104.012 95.0078 103.246 95.4297C102.488 95.8516 101.594 96.0625 100.562 96.0625C100.039 96.0625 99.5 95.9805 98.9453 95.8164C98.3984 95.6602 97.8789 95.418 97.3867 95.0898C96.9023 94.7695 96.4883 94.3711 96.1445 93.8945L96.9297 93.0391C97.4453 93.6641 97.9961 94.1211 98.582 94.4102C99.168 94.707 99.8008 94.8555 100.48 94.8555C101.285 94.8555 101.965 94.6953 102.52 94.375C103.082 94.0547 103.508 93.5938 103.797 92.9922C104.094 92.3906 104.242 91.668 104.242 90.8242V81.1094L104.348 78.3203ZM95.4414 84.7891V84.543C95.4414 83.5586 95.5508 82.6719 95.7695 81.8828C95.9961 81.0859 96.3203 80.4062 96.7422 79.8438C97.1641 79.2734 97.6758 78.8398 98.2773 78.543C98.8867 78.2383 99.5742 78.0859 100.34 78.0859C101.074 78.0859 101.727 78.207 102.297 78.4492C102.867 78.6914 103.359 79.0391 103.773 79.4922C104.188 79.9453 104.52 80.4844 104.77 81.1094C105.027 81.7344 105.215 82.4297 105.332 83.1953V86.3242C105.238 87.043 105.066 87.7031 104.816 88.3047C104.566 88.8984 104.234 89.418 103.82 89.8633C103.406 90.3008 102.906 90.6406 102.32 90.8828C101.742 91.1172 101.074 91.2344 100.316 91.2344C99.5586 91.2344 98.8789 91.0781 98.2773 90.7656C97.6758 90.4531 97.1641 90.0117 96.7422 89.4414C96.3203 88.8633 95.9961 88.1797 95.7695 87.3906C95.5508 86.6016 95.4414 85.7344 95.4414 84.7891ZM96.8477 84.543V84.7891C96.8477 85.5312 96.9219 86.2188 97.0703 86.8516C97.2188 87.4844 97.4453 88.0352 97.75 88.5039C98.0547 88.9727 98.4414 89.3398 98.9102 89.6055C99.3789 89.8711 99.9297 90.0039 100.562 90.0039C101.367 90.0039 102.043 89.8516 102.59 89.5469C103.137 89.2344 103.57 88.8242 103.891 88.3164C104.211 87.8008 104.445 87.2383 104.594 86.6289V82.9844C104.508 82.5703 104.375 82.1484 104.195 81.7188C104.023 81.2891 103.781 80.8945 103.469 80.5352C103.164 80.168 102.773 79.875 102.297 79.6562C101.828 79.4297 101.258 79.3164 100.586 79.3164C99.9453 79.3164 99.3867 79.4492 98.9102 79.7148C98.4414 79.9805 98.0547 80.3516 97.75 80.8281C97.4453 81.2969 97.2188 81.8477 97.0703 82.4805C96.9219 83.1133 96.8477 83.8008 96.8477 84.543Z" fill="#F4EFEC"/>
<path d="M21.5234 115.425V126.8H20.0391V115.425H21.5234ZM25.1797 115.425V116.659H16.3906V115.425H25.1797ZM28.0938 114.8V126.8H26.6484V114.8H28.0938ZM27.75 122.253L27.1484 122.23C27.1536 121.652 27.2396 121.118 27.4062 120.628C27.5729 120.133 27.8073 119.704 28.1094 119.339C28.4115 118.975 28.7708 118.693 29.1875 118.495C29.6094 118.292 30.0755 118.191 30.5859 118.191C31.0026 118.191 31.3776 118.248 31.7109 118.363C32.0443 118.472 32.3281 118.649 32.5625 118.894C32.8021 119.139 32.9844 119.456 33.1094 119.847C33.2344 120.232 33.2969 120.704 33.2969 121.261V126.8H31.8438V121.245C31.8438 120.803 31.7786 120.448 31.6484 120.183C31.5182 119.912 31.3281 119.717 31.0781 119.597C30.8281 119.472 30.5208 119.409 30.1562 119.409C29.7969 119.409 29.4688 119.485 29.1719 119.636C28.8802 119.787 28.6276 119.995 28.4141 120.261C28.2057 120.527 28.0417 120.831 27.9219 121.175C27.8073 121.514 27.75 121.873 27.75 122.253ZM38.9688 126.956C38.3802 126.956 37.8464 126.857 37.3672 126.659C36.8932 126.456 36.4844 126.172 36.1406 125.808C35.8021 125.443 35.5417 125.011 35.3594 124.511C35.1771 124.011 35.0859 123.464 35.0859 122.87V122.542C35.0859 121.855 35.1875 121.243 35.3906 120.706C35.5938 120.165 35.8698 119.706 36.2188 119.331C36.5677 118.956 36.9635 118.672 37.4062 118.48C37.849 118.287 38.3073 118.191 38.7812 118.191C39.3854 118.191 39.9062 118.295 40.3438 118.503C40.7865 118.712 41.1484 119.003 41.4297 119.378C41.7109 119.748 41.9193 120.185 42.0547 120.691C42.1901 121.191 42.2578 121.738 42.2578 122.331V122.98H35.9453V121.8H40.8125V121.691C40.7917 121.316 40.7135 120.951 40.5781 120.597C40.4479 120.243 40.2396 119.951 39.9531 119.722C39.6667 119.493 39.276 119.378 38.7812 119.378C38.4531 119.378 38.151 119.448 37.875 119.589C37.599 119.725 37.362 119.928 37.1641 120.198C36.9661 120.469 36.8125 120.8 36.7031 121.191C36.5938 121.581 36.5391 122.032 36.5391 122.542V122.87C36.5391 123.271 36.5938 123.649 36.7031 124.003C36.8177 124.352 36.9818 124.659 37.1953 124.925C37.4141 125.191 37.6771 125.399 37.9844 125.55C38.2969 125.701 38.651 125.777 39.0469 125.777C39.5573 125.777 39.9896 125.672 40.3438 125.464C40.6979 125.256 41.0078 124.977 41.2734 124.628L42.1484 125.323C41.9661 125.6 41.7344 125.863 41.4531 126.113C41.1719 126.363 40.8255 126.566 40.4141 126.722C40.0078 126.878 39.526 126.956 38.9688 126.956ZM49.3594 119.675V126.8H47.9141V118.347H49.3203L49.3594 119.675ZM52 118.3L51.9922 119.644C51.8724 119.618 51.7578 119.602 51.6484 119.597C51.5443 119.587 51.4245 119.581 51.2891 119.581C50.9557 119.581 50.6615 119.633 50.4062 119.738C50.151 119.842 49.9349 119.988 49.7578 120.175C49.5807 120.363 49.4401 120.587 49.3359 120.847C49.237 121.102 49.1719 121.383 49.1406 121.691L48.7344 121.925C48.7344 121.415 48.7839 120.935 48.8828 120.488C48.987 120.04 49.1458 119.644 49.3594 119.3C49.5729 118.951 49.8438 118.68 50.1719 118.488C50.5052 118.29 50.901 118.191 51.3594 118.191C51.4635 118.191 51.5833 118.204 51.7188 118.23C51.8542 118.251 51.9479 118.274 52 118.3ZM52.7969 122.667V122.488C52.7969 121.878 52.8854 121.313 53.0625 120.792C53.2396 120.266 53.4948 119.81 53.8281 119.425C54.1615 119.034 54.5651 118.732 55.0391 118.519C55.513 118.3 56.0443 118.191 56.6328 118.191C57.2266 118.191 57.7604 118.3 58.2344 118.519C58.7135 118.732 59.1198 119.034 59.4531 119.425C59.7917 119.81 60.0495 120.266 60.2266 120.792C60.4036 121.313 60.4922 121.878 60.4922 122.488V122.667C60.4922 123.277 60.4036 123.842 60.2266 124.363C60.0495 124.883 59.7917 125.339 59.4531 125.73C59.1198 126.115 58.7161 126.417 58.2422 126.636C57.7734 126.85 57.2422 126.956 56.6484 126.956C56.0547 126.956 55.5208 126.85 55.0469 126.636C54.5729 126.417 54.1667 126.115 53.8281 125.73C53.4948 125.339 53.2396 124.883 53.0625 124.363C52.8854 123.842 52.7969 123.277 52.7969 122.667ZM54.2422 122.488V122.667C54.2422 123.089 54.2917 123.488 54.3906 123.863C54.4896 124.232 54.638 124.56 54.8359 124.847C55.0391 125.133 55.2917 125.36 55.5938 125.527C55.8958 125.688 56.2474 125.769 56.6484 125.769C57.0443 125.769 57.3906 125.688 57.6875 125.527C57.9896 125.36 58.2396 125.133 58.4375 124.847C58.6354 124.56 58.7839 124.232 58.8828 123.863C58.987 123.488 59.0391 123.089 59.0391 122.667V122.488C59.0391 122.071 58.987 121.678 58.8828 121.308C58.7839 120.933 58.6328 120.602 58.4297 120.316C58.2318 120.024 57.9818 119.795 57.6797 119.628C57.3828 119.462 57.0339 119.378 56.6328 119.378C56.237 119.378 55.888 119.462 55.5859 119.628C55.2891 119.795 55.0391 120.024 54.8359 120.316C54.638 120.602 54.4896 120.933 54.3906 121.308C54.2917 121.678 54.2422 122.071 54.2422 122.488ZM62.2969 114.8H63.75V125.159L63.625 126.8H62.2969V114.8ZM69.4609 122.503V122.667C69.4609 123.282 69.388 123.852 69.2422 124.378C69.0964 124.899 68.8828 125.352 68.6016 125.738C68.3203 126.123 67.9766 126.422 67.5703 126.636C67.1641 126.85 66.6979 126.956 66.1719 126.956C65.6354 126.956 65.1641 126.865 64.7578 126.683C64.3568 126.495 64.0182 126.227 63.7422 125.878C63.4661 125.529 63.2448 125.107 63.0781 124.613C62.9167 124.118 62.8047 123.56 62.7422 122.941V122.222C62.8047 121.597 62.9167 121.037 63.0781 120.542C63.2448 120.047 63.4661 119.626 63.7422 119.277C64.0182 118.922 64.3568 118.654 64.7578 118.472C65.1589 118.284 65.625 118.191 66.1562 118.191C66.6875 118.191 67.1589 118.295 67.5703 118.503C67.9818 118.706 68.3255 118.998 68.6016 119.378C68.8828 119.758 69.0964 120.214 69.2422 120.745C69.388 121.271 69.4609 121.857 69.4609 122.503ZM68.0078 122.667V122.503C68.0078 122.081 67.9688 121.685 67.8906 121.316C67.8125 120.941 67.6875 120.613 67.5156 120.331C67.3438 120.045 67.1172 119.821 66.8359 119.659C66.5547 119.493 66.2083 119.409 65.7969 119.409C65.4323 119.409 65.1146 119.472 64.8438 119.597C64.5781 119.722 64.3516 119.891 64.1641 120.105C63.9766 120.313 63.8229 120.553 63.7031 120.823C63.5885 121.089 63.5026 121.365 63.4453 121.652V123.534C63.5286 123.899 63.6641 124.251 63.8516 124.589C64.0443 124.922 64.2995 125.196 64.6172 125.409C64.9401 125.623 65.3385 125.73 65.8125 125.73C66.2031 125.73 66.5365 125.652 66.8125 125.495C67.0938 125.334 67.3203 125.113 67.4922 124.831C67.6693 124.55 67.7995 124.225 67.8828 123.855C67.9661 123.485 68.0078 123.089 68.0078 122.667ZM70.9062 122.667V122.488C70.9062 121.878 70.9948 121.313 71.1719 120.792C71.349 120.266 71.6042 119.81 71.9375 119.425C72.2708 119.034 72.6745 118.732 73.1484 118.519C73.6224 118.3 74.1536 118.191 74.7422 118.191C75.3359 118.191 75.8698 118.3 76.3438 118.519C76.8229 118.732 77.2292 119.034 77.5625 119.425C77.901 119.81 78.1589 120.266 78.3359 120.792C78.513 121.313 78.6016 121.878 78.6016 122.488V122.667C78.6016 123.277 78.513 123.842 78.3359 124.363C78.1589 124.883 77.901 125.339 77.5625 125.73C77.2292 126.115 76.8255 126.417 76.3516 126.636C75.8828 126.85 75.3516 126.956 74.7578 126.956C74.1641 126.956 73.6302 126.85 73.1562 126.636C72.6823 126.417 72.276 126.115 71.9375 125.73C71.6042 125.339 71.349 124.883 71.1719 124.363C70.9948 123.842 70.9062 123.277 70.9062 122.667ZM72.3516 122.488V122.667C72.3516 123.089 72.401 123.488 72.5 123.863C72.599 124.232 72.7474 124.56 72.9453 124.847C73.1484 125.133 73.401 125.36 73.7031 125.527C74.0052 125.688 74.3568 125.769 74.7578 125.769C75.1536 125.769 75.5 125.688 75.7969 125.527C76.099 125.36 76.349 125.133 76.5469 124.847C76.7448 124.56 76.8932 124.232 76.9922 123.863C77.0964 123.488 77.1484 123.089 77.1484 122.667V122.488C77.1484 122.071 77.0964 121.678 76.9922 121.308C76.8932 120.933 76.7422 120.602 76.5391 120.316C76.3411 120.024 76.0911 119.795 75.7891 119.628C75.4922 119.462 75.1432 119.378 74.7422 119.378C74.3464 119.378 73.9974 119.462 73.6953 119.628C73.3984 119.795 73.1484 120.024 72.9453 120.316C72.7474 120.602 72.599 120.933 72.5 121.308C72.401 121.678 72.3516 122.071 72.3516 122.488ZM83.9531 118.347V119.456H79.3828V118.347H83.9531ZM80.9297 116.292H82.375V124.706C82.375 124.993 82.4193 125.209 82.5078 125.355C82.5964 125.501 82.7109 125.597 82.8516 125.644C82.9922 125.691 83.1432 125.714 83.3047 125.714C83.4245 125.714 83.5495 125.704 83.6797 125.683C83.8151 125.657 83.9167 125.636 83.9844 125.62L83.9922 126.8C83.8776 126.837 83.7266 126.87 83.5391 126.902C83.3568 126.938 83.1354 126.956 82.875 126.956C82.5208 126.956 82.1953 126.886 81.8984 126.745C81.6016 126.605 81.3646 126.37 81.1875 126.042C81.0156 125.709 80.9297 125.261 80.9297 124.698V116.292ZM93.1562 118.347V119.456H88.5859V118.347H93.1562ZM90.1328 116.292H91.5781V124.706C91.5781 124.993 91.6224 125.209 91.7109 125.355C91.7995 125.501 91.9141 125.597 92.0547 125.644C92.1953 125.691 92.3464 125.714 92.5078 125.714C92.6276 125.714 92.7526 125.704 92.8828 125.683C93.0182 125.657 93.1198 125.636 93.1875 125.62L93.1953 126.8C93.0807 126.837 92.9297 126.87 92.7422 126.902C92.5599 126.938 92.3385 126.956 92.0781 126.956C91.724 126.956 91.3984 126.886 91.1016 126.745C90.8047 126.605 90.5677 126.37 90.3906 126.042C90.2188 125.709 90.1328 125.261 90.1328 124.698V116.292ZM96.2969 119.675V126.8H94.8516V118.347H96.2578L96.2969 119.675ZM98.9375 118.3L98.9297 119.644C98.8099 119.618 98.6953 119.602 98.5859 119.597C98.4818 119.587 98.362 119.581 98.2266 119.581C97.8932 119.581 97.599 119.633 97.3438 119.738C97.0885 119.842 96.8724 119.988 96.6953 120.175C96.5182 120.363 96.3776 120.587 96.2734 120.847C96.1745 121.102 96.1094 121.383 96.0781 121.691L95.6719 121.925C95.6719 121.415 95.7214 120.935 95.8203 120.488C95.9245 120.04 96.0833 119.644 96.2969 119.3C96.5104 118.951 96.7812 118.68 97.1094 118.488C97.4427 118.29 97.8385 118.191 98.2969 118.191C98.401 118.191 98.5208 118.204 98.6562 118.23C98.7917 118.251 98.8854 118.274 98.9375 118.3ZM104.945 125.355V121.003C104.945 120.67 104.878 120.381 104.742 120.136C104.612 119.886 104.414 119.693 104.148 119.558C103.883 119.422 103.555 119.355 103.164 119.355C102.799 119.355 102.479 119.417 102.203 119.542C101.932 119.667 101.719 119.831 101.562 120.034C101.411 120.238 101.336 120.456 101.336 120.691H99.8906C99.8906 120.389 99.9688 120.089 100.125 119.792C100.281 119.495 100.505 119.227 100.797 118.988C101.094 118.743 101.448 118.55 101.859 118.409C102.276 118.264 102.74 118.191 103.25 118.191C103.865 118.191 104.406 118.295 104.875 118.503C105.349 118.712 105.719 119.027 105.984 119.448C106.255 119.865 106.391 120.389 106.391 121.019V124.956C106.391 125.238 106.414 125.537 106.461 125.855C106.513 126.172 106.589 126.446 106.688 126.675V126.8H105.18C105.107 126.633 105.049 126.412 105.008 126.136C104.966 125.855 104.945 125.594 104.945 125.355ZM105.195 121.675L105.211 122.691H103.75C103.339 122.691 102.971 122.725 102.648 122.792C102.326 122.855 102.055 122.951 101.836 123.081C101.617 123.212 101.451 123.376 101.336 123.573C101.221 123.766 101.164 123.993 101.164 124.253C101.164 124.519 101.224 124.761 101.344 124.98C101.464 125.198 101.643 125.373 101.883 125.503C102.128 125.628 102.427 125.691 102.781 125.691C103.224 125.691 103.615 125.597 103.953 125.409C104.292 125.222 104.56 124.993 104.758 124.722C104.961 124.451 105.07 124.188 105.086 123.933L105.703 124.628C105.667 124.847 105.568 125.089 105.406 125.355C105.245 125.62 105.029 125.876 104.758 126.12C104.492 126.36 104.174 126.56 103.805 126.722C103.44 126.878 103.029 126.956 102.57 126.956C101.997 126.956 101.495 126.844 101.062 126.62C100.635 126.396 100.302 126.097 100.062 125.722C99.8281 125.342 99.7109 124.917 99.7109 124.448C99.7109 123.995 99.7995 123.597 99.9766 123.253C100.154 122.904 100.409 122.615 100.742 122.386C101.076 122.152 101.477 121.975 101.945 121.855C102.414 121.735 102.938 121.675 103.516 121.675H105.195ZM111.125 125.495L113.438 118.347H114.914L111.875 126.8H110.906L111.125 125.495ZM109.195 118.347L111.578 125.534L111.742 126.8H110.773L107.711 118.347H109.195ZM119.719 126.956C119.13 126.956 118.596 126.857 118.117 126.659C117.643 126.456 117.234 126.172 116.891 125.808C116.552 125.443 116.292 125.011 116.109 124.511C115.927 124.011 115.836 123.464 115.836 122.87V122.542C115.836 121.855 115.938 121.243 116.141 120.706C116.344 120.165 116.62 119.706 116.969 119.331C117.318 118.956 117.714 118.672 118.156 118.48C118.599 118.287 119.057 118.191 119.531 118.191C120.135 118.191 120.656 118.295 121.094 118.503C121.536 118.712 121.898 119.003 122.18 119.378C122.461 119.748 122.669 120.185 122.805 120.691C122.94 121.191 123.008 121.738 123.008 122.331V122.98H116.695V121.8H121.562V121.691C121.542 121.316 121.464 120.951 121.328 120.597C121.198 120.243 120.99 119.951 120.703 119.722C120.417 119.493 120.026 119.378 119.531 119.378C119.203 119.378 118.901 119.448 118.625 119.589C118.349 119.725 118.112 119.928 117.914 120.198C117.716 120.469 117.562 120.8 117.453 121.191C117.344 121.581 117.289 122.032 117.289 122.542V122.87C117.289 123.271 117.344 123.649 117.453 124.003C117.568 124.352 117.732 124.659 117.945 124.925C118.164 125.191 118.427 125.399 118.734 125.55C119.047 125.701 119.401 125.777 119.797 125.777C120.307 125.777 120.74 125.672 121.094 125.464C121.448 125.256 121.758 124.977 122.023 124.628L122.898 125.323C122.716 125.6 122.484 125.863 122.203 126.113C121.922 126.363 121.576 126.566 121.164 126.722C120.758 126.878 120.276 126.956 119.719 126.956ZM126.141 119.675V126.8H124.695V118.347H126.102L126.141 119.675ZM128.781 118.3L128.773 119.644C128.654 119.618 128.539 119.602 128.43 119.597C128.326 119.587 128.206 119.581 128.07 119.581C127.737 119.581 127.443 119.633 127.188 119.738C126.932 119.842 126.716 119.988 126.539 120.175C126.362 120.363 126.221 120.587 126.117 120.847C126.018 121.102 125.953 121.383 125.922 121.691L125.516 121.925C125.516 121.415 125.565 120.935 125.664 120.488C125.768 120.04 125.927 119.644 126.141 119.3C126.354 118.951 126.625 118.68 126.953 118.488C127.286 118.29 127.682 118.191 128.141 118.191C128.245 118.191 128.365 118.204 128.5 118.23C128.635 118.251 128.729 118.274 128.781 118.3ZM135.039 124.558C135.039 124.35 134.992 124.157 134.898 123.98C134.81 123.797 134.625 123.633 134.344 123.488C134.068 123.337 133.651 123.206 133.094 123.097C132.625 122.998 132.201 122.881 131.82 122.745C131.445 122.61 131.125 122.446 130.859 122.253C130.599 122.06 130.398 121.834 130.258 121.573C130.117 121.313 130.047 121.008 130.047 120.659C130.047 120.326 130.12 120.011 130.266 119.714C130.417 119.417 130.628 119.154 130.898 118.925C131.174 118.696 131.505 118.516 131.891 118.386C132.276 118.256 132.706 118.191 133.18 118.191C133.857 118.191 134.435 118.31 134.914 118.55C135.393 118.79 135.76 119.11 136.016 119.511C136.271 119.907 136.398 120.347 136.398 120.831H134.953C134.953 120.597 134.883 120.37 134.742 120.152C134.607 119.928 134.406 119.743 134.141 119.597C133.88 119.451 133.56 119.378 133.18 119.378C132.779 119.378 132.453 119.441 132.203 119.566C131.958 119.685 131.779 119.839 131.664 120.027C131.555 120.214 131.5 120.412 131.5 120.62C131.5 120.777 131.526 120.917 131.578 121.042C131.635 121.162 131.734 121.274 131.875 121.378C132.016 121.477 132.214 121.571 132.469 121.659C132.724 121.748 133.049 121.837 133.445 121.925C134.138 122.081 134.708 122.269 135.156 122.488C135.604 122.706 135.938 122.975 136.156 123.292C136.375 123.61 136.484 123.995 136.484 124.448C136.484 124.818 136.406 125.157 136.25 125.464C136.099 125.771 135.878 126.037 135.586 126.261C135.299 126.48 134.956 126.652 134.555 126.777C134.159 126.896 133.714 126.956 133.219 126.956C132.474 126.956 131.844 126.823 131.328 126.558C130.812 126.292 130.422 125.948 130.156 125.527C129.891 125.105 129.758 124.659 129.758 124.191H131.211C131.232 124.587 131.346 124.902 131.555 125.136C131.763 125.365 132.018 125.529 132.32 125.628C132.622 125.722 132.922 125.769 133.219 125.769C133.615 125.769 133.945 125.717 134.211 125.613C134.482 125.508 134.688 125.365 134.828 125.183C134.969 125.001 135.039 124.792 135.039 124.558ZM141.891 126.956C141.302 126.956 140.768 126.857 140.289 126.659C139.815 126.456 139.406 126.172 139.062 125.808C138.724 125.443 138.464 125.011 138.281 124.511C138.099 124.011 138.008 123.464 138.008 122.87V122.542C138.008 121.855 138.109 121.243 138.312 120.706C138.516 120.165 138.792 119.706 139.141 119.331C139.49 118.956 139.885 118.672 140.328 118.48C140.771 118.287 141.229 118.191 141.703 118.191C142.307 118.191 142.828 118.295 143.266 118.503C143.708 118.712 144.07 119.003 144.352 119.378C144.633 119.748 144.841 120.185 144.977 120.691C145.112 121.191 145.18 121.738 145.18 122.331V122.98H138.867V121.8H143.734V121.691C143.714 121.316 143.635 120.951 143.5 120.597C143.37 120.243 143.161 119.951 142.875 119.722C142.589 119.493 142.198 119.378 141.703 119.378C141.375 119.378 141.073 119.448 140.797 119.589C140.521 119.725 140.284 119.928 140.086 120.198C139.888 120.469 139.734 120.8 139.625 121.191C139.516 121.581 139.461 122.032 139.461 122.542V122.87C139.461 123.271 139.516 123.649 139.625 124.003C139.74 124.352 139.904 124.659 140.117 124.925C140.336 125.191 140.599 125.399 140.906 125.55C141.219 125.701 141.573 125.777 141.969 125.777C142.479 125.777 142.911 125.672 143.266 125.464C143.62 125.256 143.93 124.977 144.195 124.628L145.07 125.323C144.888 125.6 144.656 125.863 144.375 126.113C144.094 126.363 143.747 126.566 143.336 126.722C142.93 126.878 142.448 126.956 141.891 126.956ZM151.789 124.558C151.789 124.35 151.742 124.157 151.648 123.98C151.56 123.797 151.375 123.633 151.094 123.488C150.818 123.337 150.401 123.206 149.844 123.097C149.375 122.998 148.951 122.881 148.57 122.745C148.195 122.61 147.875 122.446 147.609 122.253C147.349 122.06 147.148 121.834 147.008 121.573C146.867 121.313 146.797 121.008 146.797 120.659C146.797 120.326 146.87 120.011 147.016 119.714C147.167 119.417 147.378 119.154 147.648 118.925C147.924 118.696 148.255 118.516 148.641 118.386C149.026 118.256 149.456 118.191 149.93 118.191C150.607 118.191 151.185 118.31 151.664 118.55C152.143 118.79 152.51 119.11 152.766 119.511C153.021 119.907 153.148 120.347 153.148 120.831H151.703C151.703 120.597 151.633 120.37 151.492 120.152C151.357 119.928 151.156 119.743 150.891 119.597C150.63 119.451 150.31 119.378 149.93 119.378C149.529 119.378 149.203 119.441 148.953 119.566C148.708 119.685 148.529 119.839 148.414 120.027C148.305 120.214 148.25 120.412 148.25 120.62C148.25 120.777 148.276 120.917 148.328 121.042C148.385 121.162 148.484 121.274 148.625 121.378C148.766 121.477 148.964 121.571 149.219 121.659C149.474 121.748 149.799 121.837 150.195 121.925C150.888 122.081 151.458 122.269 151.906 122.488C152.354 122.706 152.688 122.975 152.906 123.292C153.125 123.61 153.234 123.995 153.234 124.448C153.234 124.818 153.156 125.157 153 125.464C152.849 125.771 152.628 126.037 152.336 126.261C152.049 126.48 151.706 126.652 151.305 126.777C150.909 126.896 150.464 126.956 149.969 126.956C149.224 126.956 148.594 126.823 148.078 126.558C147.562 126.292 147.172 125.948 146.906 125.527C146.641 125.105 146.508 124.659 146.508 124.191H147.961C147.982 124.587 148.096 124.902 148.305 125.136C148.513 125.365 148.768 125.529 149.07 125.628C149.372 125.722 149.672 125.769 149.969 125.769C150.365 125.769 150.695 125.717 150.961 125.613C151.232 125.508 151.438 125.365 151.578 125.183C151.719 125.001 151.789 124.792 151.789 124.558ZM164.086 125.355V121.003C164.086 120.67 164.018 120.381 163.883 120.136C163.753 119.886 163.555 119.693 163.289 119.558C163.023 119.422 162.695 119.355 162.305 119.355C161.94 119.355 161.62 119.417 161.344 119.542C161.073 119.667 160.859 119.831 160.703 120.034C160.552 120.238 160.477 120.456 160.477 120.691H159.031C159.031 120.389 159.109 120.089 159.266 119.792C159.422 119.495 159.646 119.227 159.938 118.988C160.234 118.743 160.589 118.55 161 118.409C161.417 118.264 161.88 118.191 162.391 118.191C163.005 118.191 163.547 118.295 164.016 118.503C164.49 118.712 164.859 119.027 165.125 119.448C165.396 119.865 165.531 120.389 165.531 121.019V124.956C165.531 125.238 165.555 125.537 165.602 125.855C165.654 126.172 165.729 126.446 165.828 126.675V126.8H164.32C164.247 126.633 164.19 126.412 164.148 126.136C164.107 125.855 164.086 125.594 164.086 125.355ZM164.336 121.675L164.352 122.691H162.891C162.479 122.691 162.112 122.725 161.789 122.792C161.466 122.855 161.195 122.951 160.977 123.081C160.758 123.212 160.591 123.376 160.477 123.573C160.362 123.766 160.305 123.993 160.305 124.253C160.305 124.519 160.365 124.761 160.484 124.98C160.604 125.198 160.784 125.373 161.023 125.503C161.268 125.628 161.568 125.691 161.922 125.691C162.365 125.691 162.755 125.597 163.094 125.409C163.432 125.222 163.701 124.993 163.898 124.722C164.102 124.451 164.211 124.188 164.227 123.933L164.844 124.628C164.807 124.847 164.708 125.089 164.547 125.355C164.385 125.62 164.169 125.876 163.898 126.12C163.633 126.36 163.315 126.56 162.945 126.722C162.581 126.878 162.169 126.956 161.711 126.956C161.138 126.956 160.635 126.844 160.203 126.62C159.776 126.396 159.443 126.097 159.203 125.722C158.969 125.342 158.852 124.917 158.852 124.448C158.852 123.995 158.94 123.597 159.117 123.253C159.294 122.904 159.549 122.615 159.883 122.386C160.216 122.152 160.617 121.975 161.086 121.855C161.555 121.735 162.078 121.675 162.656 121.675H164.336ZM169.375 114.8V126.8H167.922V114.8H169.375ZM171.312 122.667V122.488C171.312 121.878 171.401 121.313 171.578 120.792C171.755 120.266 172.01 119.81 172.344 119.425C172.677 119.034 173.081 118.732 173.555 118.519C174.029 118.3 174.56 118.191 175.148 118.191C175.742 118.191 176.276 118.3 176.75 118.519C177.229 118.732 177.635 119.034 177.969 119.425C178.307 119.81 178.565 120.266 178.742 120.792C178.919 121.313 179.008 121.878 179.008 122.488V122.667C179.008 123.277 178.919 123.842 178.742 124.363C178.565 124.883 178.307 125.339 177.969 125.73C177.635 126.115 177.232 126.417 176.758 126.636C176.289 126.85 175.758 126.956 175.164 126.956C174.57 126.956 174.036 126.85 173.562 126.636C173.089 126.417 172.682 126.115 172.344 125.73C172.01 125.339 171.755 124.883 171.578 124.363C171.401 123.842 171.312 123.277 171.312 122.667ZM172.758 122.488V122.667C172.758 123.089 172.807 123.488 172.906 123.863C173.005 124.232 173.154 124.56 173.352 124.847C173.555 125.133 173.807 125.36 174.109 125.527C174.411 125.688 174.763 125.769 175.164 125.769C175.56 125.769 175.906 125.688 176.203 125.527C176.505 125.36 176.755 125.133 176.953 124.847C177.151 124.56 177.299 124.232 177.398 123.863C177.503 123.488 177.555 123.089 177.555 122.667V122.488C177.555 122.071 177.503 121.678 177.398 121.308C177.299 120.933 177.148 120.602 176.945 120.316C176.747 120.024 176.497 119.795 176.195 119.628C175.898 119.462 175.549 119.378 175.148 119.378C174.753 119.378 174.404 119.462 174.102 119.628C173.805 119.795 173.555 120.024 173.352 120.316C173.154 120.602 173.005 120.933 172.906 121.308C172.807 121.678 172.758 122.071 172.758 122.488ZM182.266 120.152V126.8H180.82V118.347H182.188L182.266 120.152ZM181.922 122.253L181.32 122.23C181.326 121.652 181.411 121.118 181.578 120.628C181.745 120.133 181.979 119.704 182.281 119.339C182.583 118.975 182.943 118.693 183.359 118.495C183.781 118.292 184.247 118.191 184.758 118.191C185.174 118.191 185.549 118.248 185.883 118.363C186.216 118.472 186.5 118.649 186.734 118.894C186.974 119.139 187.156 119.456 187.281 119.847C187.406 120.232 187.469 120.704 187.469 121.261V126.8H186.016V121.245C186.016 120.803 185.951 120.448 185.82 120.183C185.69 119.912 185.5 119.717 185.25 119.597C185 119.472 184.693 119.409 184.328 119.409C183.969 119.409 183.641 119.485 183.344 119.636C183.052 119.787 182.799 119.995 182.586 120.261C182.378 120.527 182.214 120.831 182.094 121.175C181.979 121.514 181.922 121.873 181.922 122.253ZM195.141 118.347H196.453V126.62C196.453 127.365 196.302 128.001 196 128.527C195.698 129.053 195.276 129.451 194.734 129.722C194.198 129.998 193.578 130.136 192.875 130.136C192.583 130.136 192.24 130.089 191.844 129.995C191.453 129.907 191.068 129.753 190.688 129.534C190.312 129.321 189.997 129.032 189.742 128.667L190.5 127.808C190.854 128.235 191.224 128.532 191.609 128.698C192 128.865 192.385 128.948 192.766 128.948C193.224 128.948 193.62 128.863 193.953 128.691C194.286 128.519 194.544 128.264 194.727 127.925C194.914 127.592 195.008 127.18 195.008 126.691V120.206L195.141 118.347ZM189.32 122.667V122.503C189.32 121.857 189.396 121.271 189.547 120.745C189.703 120.214 189.924 119.758 190.211 119.378C190.503 118.998 190.854 118.706 191.266 118.503C191.677 118.295 192.141 118.191 192.656 118.191C193.188 118.191 193.651 118.284 194.047 118.472C194.448 118.654 194.786 118.922 195.062 119.277C195.344 119.626 195.565 120.047 195.727 120.542C195.888 121.037 196 121.597 196.062 122.222V122.941C196.005 123.56 195.893 124.118 195.727 124.613C195.565 125.107 195.344 125.529 195.062 125.878C194.786 126.227 194.448 126.495 194.047 126.683C193.646 126.865 193.177 126.956 192.641 126.956C192.135 126.956 191.677 126.85 191.266 126.636C190.859 126.422 190.51 126.123 190.219 125.738C189.927 125.352 189.703 124.899 189.547 124.378C189.396 123.852 189.32 123.282 189.32 122.667ZM190.766 122.503V122.667C190.766 123.089 190.807 123.485 190.891 123.855C190.979 124.225 191.112 124.55 191.289 124.831C191.471 125.113 191.703 125.334 191.984 125.495C192.266 125.652 192.602 125.73 192.992 125.73C193.471 125.73 193.867 125.628 194.18 125.425C194.492 125.222 194.74 124.954 194.922 124.62C195.109 124.287 195.255 123.925 195.359 123.534V121.652C195.302 121.365 195.214 121.089 195.094 120.823C194.979 120.553 194.828 120.313 194.641 120.105C194.458 119.891 194.232 119.722 193.961 119.597C193.69 119.472 193.372 119.409 193.008 119.409C192.612 119.409 192.271 119.493 191.984 119.659C191.703 119.821 191.471 120.045 191.289 120.331C191.112 120.613 190.979 120.941 190.891 121.316C190.807 121.685 190.766 122.081 190.766 122.503ZM207.602 125.355V121.003C207.602 120.67 207.534 120.381 207.398 120.136C207.268 119.886 207.07 119.693 206.805 119.558C206.539 119.422 206.211 119.355 205.82 119.355C205.456 119.355 205.135 119.417 204.859 119.542C204.589 119.667 204.375 119.831 204.219 120.034C204.068 120.238 203.992 120.456 203.992 120.691H202.547C202.547 120.389 202.625 120.089 202.781 119.792C202.938 119.495 203.161 119.227 203.453 118.988C203.75 118.743 204.104 118.55 204.516 118.409C204.932 118.264 205.396 118.191 205.906 118.191C206.521 118.191 207.062 118.295 207.531 118.503C208.005 118.712 208.375 119.027 208.641 119.448C208.911 119.865 209.047 120.389 209.047 121.019V124.956C209.047 125.238 209.07 125.537 209.117 125.855C209.169 126.172 209.245 126.446 209.344 126.675V126.8H207.836C207.763 126.633 207.706 126.412 207.664 126.136C207.622 125.855 207.602 125.594 207.602 125.355ZM207.852 121.675L207.867 122.691H206.406C205.995 122.691 205.628 122.725 205.305 122.792C204.982 122.855 204.711 122.951 204.492 123.081C204.273 123.212 204.107 123.376 203.992 123.573C203.878 123.766 203.82 123.993 203.82 124.253C203.82 124.519 203.88 124.761 204 124.98C204.12 125.198 204.299 125.373 204.539 125.503C204.784 125.628 205.083 125.691 205.438 125.691C205.88 125.691 206.271 125.597 206.609 125.409C206.948 125.222 207.216 124.993 207.414 124.722C207.617 124.451 207.727 124.188 207.742 123.933L208.359 124.628C208.323 124.847 208.224 125.089 208.062 125.355C207.901 125.62 207.685 125.876 207.414 126.12C207.148 126.36 206.831 126.56 206.461 126.722C206.096 126.878 205.685 126.956 205.227 126.956C204.654 126.956 204.151 126.844 203.719 126.62C203.292 126.396 202.958 126.097 202.719 125.722C202.484 125.342 202.367 124.917 202.367 124.448C202.367 123.995 202.456 123.597 202.633 123.253C202.81 122.904 203.065 122.615 203.398 122.386C203.732 122.152 204.133 121.975 204.602 121.855C205.07 121.735 205.594 121.675 206.172 121.675H207.852ZM218.828 118.347V119.456H214.258V118.347H218.828ZM215.805 116.292H217.25V124.706C217.25 124.993 217.294 125.209 217.383 125.355C217.471 125.501 217.586 125.597 217.727 125.644C217.867 125.691 218.018 125.714 218.18 125.714C218.299 125.714 218.424 125.704 218.555 125.683C218.69 125.657 218.792 125.636 218.859 125.62L218.867 126.8C218.753 126.837 218.602 126.87 218.414 126.902C218.232 126.938 218.01 126.956 217.75 126.956C217.396 126.956 217.07 126.886 216.773 126.745C216.477 126.605 216.24 126.37 216.062 126.042C215.891 125.709 215.805 125.261 215.805 124.698V116.292ZM225.508 125.355V121.003C225.508 120.67 225.44 120.381 225.305 120.136C225.174 119.886 224.977 119.693 224.711 119.558C224.445 119.422 224.117 119.355 223.727 119.355C223.362 119.355 223.042 119.417 222.766 119.542C222.495 119.667 222.281 119.831 222.125 120.034C221.974 120.238 221.898 120.456 221.898 120.691H220.453C220.453 120.389 220.531 120.089 220.688 119.792C220.844 119.495 221.068 119.227 221.359 118.988C221.656 118.743 222.01 118.55 222.422 118.409C222.839 118.264 223.302 118.191 223.812 118.191C224.427 118.191 224.969 118.295 225.438 118.503C225.911 118.712 226.281 119.027 226.547 119.448C226.818 119.865 226.953 120.389 226.953 121.019V124.956C226.953 125.238 226.977 125.537 227.023 125.855C227.076 126.172 227.151 126.446 227.25 126.675V126.8H225.742C225.669 126.633 225.612 126.412 225.57 126.136C225.529 125.855 225.508 125.594 225.508 125.355ZM225.758 121.675L225.773 122.691H224.312C223.901 122.691 223.534 122.725 223.211 122.792C222.888 122.855 222.617 122.951 222.398 123.081C222.18 123.212 222.013 123.376 221.898 123.573C221.784 123.766 221.727 123.993 221.727 124.253C221.727 124.519 221.786 124.761 221.906 124.98C222.026 125.198 222.206 125.373 222.445 125.503C222.69 125.628 222.99 125.691 223.344 125.691C223.786 125.691 224.177 125.597 224.516 125.409C224.854 125.222 225.122 124.993 225.32 124.722C225.523 124.451 225.633 124.188 225.648 123.933L226.266 124.628C226.229 124.847 226.13 125.089 225.969 125.355C225.807 125.62 225.591 125.876 225.32 126.12C225.055 126.36 224.737 126.56 224.367 126.722C224.003 126.878 223.591 126.956 223.133 126.956C222.56 126.956 222.057 126.844 221.625 126.62C221.198 126.396 220.865 126.097 220.625 125.722C220.391 125.342 220.273 124.917 220.273 124.448C220.273 123.995 220.362 123.597 220.539 123.253C220.716 122.904 220.971 122.615 221.305 122.386C221.638 122.152 222.039 121.975 222.508 121.855C222.977 121.735 223.5 121.675 224.078 121.675H225.758ZM230.672 119.675V126.8H229.227V118.347H230.633L230.672 119.675ZM233.312 118.3L233.305 119.644C233.185 119.618 233.07 119.602 232.961 119.597C232.857 119.587 232.737 119.581 232.602 119.581C232.268 119.581 231.974 119.633 231.719 119.738C231.464 119.842 231.247 119.988 231.07 120.175C230.893 120.363 230.753 120.587 230.648 120.847C230.549 121.102 230.484 121.383 230.453 121.691L230.047 121.925C230.047 121.415 230.096 120.935 230.195 120.488C230.299 120.04 230.458 119.644 230.672 119.3C230.885 118.951 231.156 118.68 231.484 118.488C231.818 118.29 232.214 118.191 232.672 118.191C232.776 118.191 232.896 118.204 233.031 118.23C233.167 118.251 233.26 118.274 233.312 118.3ZM239.984 118.347H241.297V126.62C241.297 127.365 241.146 128.001 240.844 128.527C240.542 129.053 240.12 129.451 239.578 129.722C239.042 129.998 238.422 130.136 237.719 130.136C237.427 130.136 237.083 130.089 236.688 129.995C236.297 129.907 235.911 129.753 235.531 129.534C235.156 129.321 234.841 129.032 234.586 128.667L235.344 127.808C235.698 128.235 236.068 128.532 236.453 128.698C236.844 128.865 237.229 128.948 237.609 128.948C238.068 128.948 238.464 128.863 238.797 128.691C239.13 128.519 239.388 128.264 239.57 127.925C239.758 127.592 239.852 127.18 239.852 126.691V120.206L239.984 118.347ZM234.164 122.667V122.503C234.164 121.857 234.24 121.271 234.391 120.745C234.547 120.214 234.768 119.758 235.055 119.378C235.346 118.998 235.698 118.706 236.109 118.503C236.521 118.295 236.984 118.191 237.5 118.191C238.031 118.191 238.495 118.284 238.891 118.472C239.292 118.654 239.63 118.922 239.906 119.277C240.188 119.626 240.409 120.047 240.57 120.542C240.732 121.037 240.844 121.597 240.906 122.222V122.941C240.849 123.56 240.737 124.118 240.57 124.613C240.409 125.107 240.188 125.529 239.906 125.878C239.63 126.227 239.292 126.495 238.891 126.683C238.49 126.865 238.021 126.956 237.484 126.956C236.979 126.956 236.521 126.85 236.109 126.636C235.703 126.422 235.354 126.123 235.062 125.738C234.771 125.352 234.547 124.899 234.391 124.378C234.24 123.852 234.164 123.282 234.164 122.667ZM235.609 122.503V122.667C235.609 123.089 235.651 123.485 235.734 123.855C235.823 124.225 235.956 124.55 236.133 124.831C236.315 125.113 236.547 125.334 236.828 125.495C237.109 125.652 237.445 125.73 237.836 125.73C238.315 125.73 238.711 125.628 239.023 125.425C239.336 125.222 239.583 124.954 239.766 124.62C239.953 124.287 240.099 123.925 240.203 123.534V121.652C240.146 121.365 240.057 121.089 239.938 120.823C239.823 120.553 239.672 120.313 239.484 120.105C239.302 119.891 239.076 119.722 238.805 119.597C238.534 119.472 238.216 119.409 237.852 119.409C237.456 119.409 237.115 119.493 236.828 119.659C236.547 119.821 236.315 120.045 236.133 120.331C235.956 120.613 235.823 120.941 235.734 121.316C235.651 121.685 235.609 122.081 235.609 122.503ZM247 126.956C246.411 126.956 245.878 126.857 245.398 126.659C244.924 126.456 244.516 126.172 244.172 125.808C243.833 125.443 243.573 125.011 243.391 124.511C243.208 124.011 243.117 123.464 243.117 122.87V122.542C243.117 121.855 243.219 121.243 243.422 120.706C243.625 120.165 243.901 119.706 244.25 119.331C244.599 118.956 244.995 118.672 245.438 118.48C245.88 118.287 246.339 118.191 246.812 118.191C247.417 118.191 247.938 118.295 248.375 118.503C248.818 118.712 249.18 119.003 249.461 119.378C249.742 119.748 249.951 120.185 250.086 120.691C250.221 121.191 250.289 121.738 250.289 122.331V122.98H243.977V121.8H248.844V121.691C248.823 121.316 248.745 120.951 248.609 120.597C248.479 120.243 248.271 119.951 247.984 119.722C247.698 119.493 247.307 119.378 246.812 119.378C246.484 119.378 246.182 119.448 245.906 119.589C245.63 119.725 245.393 119.928 245.195 120.198C244.997 120.469 244.844 120.8 244.734 121.191C244.625 121.581 244.57 122.032 244.57 122.542V122.87C244.57 123.271 244.625 123.649 244.734 124.003C244.849 124.352 245.013 124.659 245.227 124.925C245.445 125.191 245.708 125.399 246.016 125.55C246.328 125.701 246.682 125.777 247.078 125.777C247.589 125.777 248.021 125.672 248.375 125.464C248.729 125.256 249.039 124.977 249.305 124.628L250.18 125.323C249.997 125.6 249.766 125.863 249.484 126.113C249.203 126.363 248.857 126.566 248.445 126.722C248.039 126.878 247.557 126.956 247 126.956ZM255.516 118.347V119.456H250.945V118.347H255.516ZM252.492 116.292H253.938V124.706C253.938 124.993 253.982 125.209 254.07 125.355C254.159 125.501 254.273 125.597 254.414 125.644C254.555 125.691 254.706 125.714 254.867 125.714C254.987 125.714 255.112 125.704 255.242 125.683C255.378 125.657 255.479 125.636 255.547 125.62L255.555 126.8C255.44 126.837 255.289 126.87 255.102 126.902C254.919 126.938 254.698 126.956 254.438 126.956C254.083 126.956 253.758 126.886 253.461 126.745C253.164 126.605 252.927 126.37 252.75 126.042C252.578 125.709 252.492 125.261 252.492 124.698V116.292ZM261.172 114.8H262.625V125.159L262.5 126.8H261.172V114.8ZM268.336 122.503V122.667C268.336 123.282 268.263 123.852 268.117 124.378C267.971 124.899 267.758 125.352 267.477 125.738C267.195 126.123 266.852 126.422 266.445 126.636C266.039 126.85 265.573 126.956 265.047 126.956C264.51 126.956 264.039 126.865 263.633 126.683C263.232 126.495 262.893 126.227 262.617 125.878C262.341 125.529 262.12 125.107 261.953 124.613C261.792 124.118 261.68 123.56 261.617 122.941V122.222C261.68 121.597 261.792 121.037 261.953 120.542C262.12 120.047 262.341 119.626 262.617 119.277C262.893 118.922 263.232 118.654 263.633 118.472C264.034 118.284 264.5 118.191 265.031 118.191C265.562 118.191 266.034 118.295 266.445 118.503C266.857 118.706 267.201 118.998 267.477 119.378C267.758 119.758 267.971 120.214 268.117 120.745C268.263 121.271 268.336 121.857 268.336 122.503ZM266.883 122.667V122.503C266.883 122.081 266.844 121.685 266.766 121.316C266.688 120.941 266.562 120.613 266.391 120.331C266.219 120.045 265.992 119.821 265.711 119.659C265.43 119.493 265.083 119.409 264.672 119.409C264.307 119.409 263.99 119.472 263.719 119.597C263.453 119.722 263.227 119.891 263.039 120.105C262.852 120.313 262.698 120.553 262.578 120.823C262.464 121.089 262.378 121.365 262.32 121.652V123.534C262.404 123.899 262.539 124.251 262.727 124.589C262.919 124.922 263.174 125.196 263.492 125.409C263.815 125.623 264.214 125.73 264.688 125.73C265.078 125.73 265.411 125.652 265.688 125.495C265.969 125.334 266.195 125.113 266.367 124.831C266.544 124.55 266.674 124.225 266.758 123.855C266.841 123.485 266.883 123.089 266.883 122.667ZM271.609 119.675V126.8H270.164V118.347H271.57L271.609 119.675ZM274.25 118.3L274.242 119.644C274.122 119.618 274.008 119.602 273.898 119.597C273.794 119.587 273.674 119.581 273.539 119.581C273.206 119.581 272.911 119.633 272.656 119.738C272.401 119.842 272.185 119.988 272.008 120.175C271.831 120.363 271.69 120.587 271.586 120.847C271.487 121.102 271.422 121.383 271.391 121.691L270.984 121.925C270.984 121.415 271.034 120.935 271.133 120.488C271.237 120.04 271.396 119.644 271.609 119.3C271.823 118.951 272.094 118.68 272.422 118.488C272.755 118.29 273.151 118.191 273.609 118.191C273.714 118.191 273.833 118.204 273.969 118.23C274.104 118.251 274.198 118.274 274.25 118.3ZM280.258 125.355V121.003C280.258 120.67 280.19 120.381 280.055 120.136C279.924 119.886 279.727 119.693 279.461 119.558C279.195 119.422 278.867 119.355 278.477 119.355C278.112 119.355 277.792 119.417 277.516 119.542C277.245 119.667 277.031 119.831 276.875 120.034C276.724 120.238 276.648 120.456 276.648 120.691H275.203C275.203 120.389 275.281 120.089 275.438 119.792C275.594 119.495 275.818 119.227 276.109 118.988C276.406 118.743 276.76 118.55 277.172 118.409C277.589 118.264 278.052 118.191 278.562 118.191C279.177 118.191 279.719 118.295 280.188 118.503C280.661 118.712 281.031 119.027 281.297 119.448C281.568 119.865 281.703 120.389 281.703 121.019V124.956C281.703 125.238 281.727 125.537 281.773 125.855C281.826 126.172 281.901 126.446 282 126.675V126.8H280.492C280.419 126.633 280.362 126.412 280.32 126.136C280.279 125.855 280.258 125.594 280.258 125.355ZM280.508 121.675L280.523 122.691H279.062C278.651 122.691 278.284 122.725 277.961 122.792C277.638 122.855 277.367 122.951 277.148 123.081C276.93 123.212 276.763 123.376 276.648 123.573C276.534 123.766 276.477 123.993 276.477 124.253C276.477 124.519 276.536 124.761 276.656 124.98C276.776 125.198 276.956 125.373 277.195 125.503C277.44 125.628 277.74 125.691 278.094 125.691C278.536 125.691 278.927 125.597 279.266 125.409C279.604 125.222 279.872 124.993 280.07 124.722C280.273 124.451 280.383 124.188 280.398 123.933L281.016 124.628C280.979 124.847 280.88 125.089 280.719 125.355C280.557 125.62 280.341 125.876 280.07 126.12C279.805 126.36 279.487 126.56 279.117 126.722C278.753 126.878 278.341 126.956 277.883 126.956C277.31 126.956 276.807 126.844 276.375 126.62C275.948 126.396 275.615 126.097 275.375 125.722C275.141 125.342 275.023 124.917 275.023 124.448C275.023 123.995 275.112 123.597 275.289 123.253C275.466 122.904 275.721 122.615 276.055 122.386C276.388 122.152 276.789 121.975 277.258 121.855C277.727 121.735 278.25 121.675 278.828 121.675H280.508ZM285.422 120.152V126.8H283.977V118.347H285.344L285.422 120.152ZM285.078 122.253L284.477 122.23C284.482 121.652 284.568 121.118 284.734 120.628C284.901 120.133 285.135 119.704 285.438 119.339C285.74 118.975 286.099 118.693 286.516 118.495C286.938 118.292 287.404 118.191 287.914 118.191C288.331 118.191 288.706 118.248 289.039 118.363C289.372 118.472 289.656 118.649 289.891 118.894C290.13 119.139 290.312 119.456 290.438 119.847C290.562 120.232 290.625 120.704 290.625 121.261V126.8H289.172V121.245C289.172 120.803 289.107 120.448 288.977 120.183C288.846 119.912 288.656 119.717 288.406 119.597C288.156 119.472 287.849 119.409 287.484 119.409C287.125 119.409 286.797 119.485 286.5 119.636C286.208 119.787 285.956 119.995 285.742 120.261C285.534 120.527 285.37 120.831 285.25 121.175C285.135 121.514 285.078 121.873 285.078 122.253ZM296.203 125.769C296.547 125.769 296.865 125.698 297.156 125.558C297.448 125.417 297.688 125.225 297.875 124.98C298.062 124.73 298.169 124.446 298.195 124.128H299.57C299.544 124.628 299.375 125.094 299.062 125.527C298.755 125.954 298.352 126.3 297.852 126.566C297.352 126.826 296.802 126.956 296.203 126.956C295.568 126.956 295.013 126.844 294.539 126.62C294.07 126.396 293.68 126.089 293.367 125.698C293.06 125.308 292.828 124.86 292.672 124.355C292.521 123.844 292.445 123.305 292.445 122.738V122.409C292.445 121.842 292.521 121.305 292.672 120.8C292.828 120.29 293.06 119.839 293.367 119.448C293.68 119.058 294.07 118.751 294.539 118.527C295.013 118.303 295.568 118.191 296.203 118.191C296.865 118.191 297.443 118.326 297.938 118.597C298.432 118.863 298.82 119.227 299.102 119.691C299.388 120.149 299.544 120.67 299.57 121.253H298.195C298.169 120.904 298.07 120.589 297.898 120.308C297.732 120.027 297.503 119.803 297.211 119.636C296.924 119.464 296.589 119.378 296.203 119.378C295.76 119.378 295.388 119.467 295.086 119.644C294.789 119.816 294.552 120.05 294.375 120.347C294.203 120.639 294.078 120.964 294 121.323C293.927 121.678 293.891 122.04 293.891 122.409V122.738C293.891 123.107 293.927 123.472 294 123.831C294.073 124.191 294.195 124.516 294.367 124.808C294.544 125.1 294.781 125.334 295.078 125.511C295.38 125.683 295.755 125.769 296.203 125.769ZM302.641 114.8V126.8H301.195V114.8H302.641ZM302.297 122.253L301.695 122.23C301.701 121.652 301.786 121.118 301.953 120.628C302.12 120.133 302.354 119.704 302.656 119.339C302.958 118.975 303.318 118.693 303.734 118.495C304.156 118.292 304.622 118.191 305.133 118.191C305.549 118.191 305.924 118.248 306.258 118.363C306.591 118.472 306.875 118.649 307.109 118.894C307.349 119.139 307.531 119.456 307.656 119.847C307.781 120.232 307.844 120.704 307.844 121.261V126.8H306.391V121.245C306.391 120.803 306.326 120.448 306.195 120.183C306.065 119.912 305.875 119.717 305.625 119.597C305.375 119.472 305.068 119.409 304.703 119.409C304.344 119.409 304.016 119.485 303.719 119.636C303.427 119.787 303.174 119.995 302.961 120.261C302.753 120.527 302.589 120.831 302.469 121.175C302.354 121.514 302.297 121.873 302.297 122.253ZM316.117 125.3L318.289 118.347H319.242L319.055 119.73L316.844 126.8H315.914L316.117 125.3ZM314.656 118.347L316.508 125.378L316.641 126.8H315.664L313.211 118.347H314.656ZM321.32 125.323L323.086 118.347H324.523L322.07 126.8H321.102L321.32 125.323ZM319.453 118.347L321.578 125.183L321.82 126.8H320.898L318.625 119.714L318.438 118.347H319.453ZM327.453 114.8V126.8H326.008V114.8H327.453ZM327.109 122.253L326.508 122.23C326.513 121.652 326.599 121.118 326.766 120.628C326.932 120.133 327.167 119.704 327.469 119.339C327.771 118.975 328.13 118.693 328.547 118.495C328.969 118.292 329.435 118.191 329.945 118.191C330.362 118.191 330.737 118.248 331.07 118.363C331.404 118.472 331.688 118.649 331.922 118.894C332.161 119.139 332.344 119.456 332.469 119.847C332.594 120.232 332.656 120.704 332.656 121.261V126.8H331.203V121.245C331.203 120.803 331.138 120.448 331.008 120.183C330.878 119.912 330.688 119.717 330.438 119.597C330.188 119.472 329.88 119.409 329.516 119.409C329.156 119.409 328.828 119.485 328.531 119.636C328.24 119.787 327.987 119.995 327.773 120.261C327.565 120.527 327.401 120.831 327.281 121.175C327.167 121.514 327.109 121.873 327.109 122.253ZM336.391 118.347V126.8H334.938V118.347H336.391ZM334.828 116.105C334.828 115.87 334.898 115.672 335.039 115.511C335.185 115.35 335.398 115.269 335.68 115.269C335.956 115.269 336.167 115.35 336.312 115.511C336.464 115.672 336.539 115.87 336.539 116.105C336.539 116.329 336.464 116.521 336.312 116.683C336.167 116.839 335.956 116.917 335.68 116.917C335.398 116.917 335.185 116.839 335.039 116.683C334.898 116.521 334.828 116.329 334.828 116.105ZM340.281 114.8V126.8H338.828V114.8H340.281ZM346.109 126.956C345.521 126.956 344.987 126.857 344.508 126.659C344.034 126.456 343.625 126.172 343.281 125.808C342.943 125.443 342.682 125.011 342.5 124.511C342.318 124.011 342.227 123.464 342.227 122.87V122.542C342.227 121.855 342.328 121.243 342.531 120.706C342.734 120.165 343.01 119.706 343.359 119.331C343.708 118.956 344.104 118.672 344.547 118.48C344.99 118.287 345.448 118.191 345.922 118.191C346.526 118.191 347.047 118.295 347.484 118.503C347.927 118.712 348.289 119.003 348.57 119.378C348.852 119.748 349.06 120.185 349.195 120.691C349.331 121.191 349.398 121.738 349.398 122.331V122.98H343.086V121.8H347.953V121.691C347.932 121.316 347.854 120.951 347.719 120.597C347.589 120.243 347.38 119.951 347.094 119.722C346.807 119.493 346.417 119.378 345.922 119.378C345.594 119.378 345.292 119.448 345.016 119.589C344.74 119.725 344.503 119.928 344.305 120.198C344.107 120.469 343.953 120.8 343.844 121.191C343.734 121.581 343.68 122.032 343.68 122.542V122.87C343.68 123.271 343.734 123.649 343.844 124.003C343.958 124.352 344.122 124.659 344.336 124.925C344.555 125.191 344.818 125.399 345.125 125.55C345.438 125.701 345.792 125.777 346.188 125.777C346.698 125.777 347.13 125.672 347.484 125.464C347.839 125.256 348.148 124.977 348.414 124.628L349.289 125.323C349.107 125.6 348.875 125.863 348.594 126.113C348.312 126.363 347.966 126.566 347.555 126.722C347.148 126.878 346.667 126.956 346.109 126.956ZM356.492 120.027V126.8H355.039V118.347H356.414L356.492 120.027ZM356.195 122.253L355.523 122.23C355.529 121.652 355.604 121.118 355.75 120.628C355.896 120.133 356.112 119.704 356.398 119.339C356.685 118.975 357.042 118.693 357.469 118.495C357.896 118.292 358.391 118.191 358.953 118.191C359.349 118.191 359.714 118.248 360.047 118.363C360.38 118.472 360.669 118.646 360.914 118.886C361.159 119.126 361.349 119.433 361.484 119.808C361.62 120.183 361.688 120.636 361.688 121.167V126.8H360.242V121.238C360.242 120.795 360.167 120.441 360.016 120.175C359.87 119.909 359.661 119.717 359.391 119.597C359.12 119.472 358.802 119.409 358.438 119.409C358.01 119.409 357.654 119.485 357.367 119.636C357.081 119.787 356.852 119.995 356.68 120.261C356.508 120.527 356.383 120.831 356.305 121.175C356.232 121.514 356.195 121.873 356.195 122.253ZM361.672 121.456L360.703 121.753C360.708 121.29 360.784 120.844 360.93 120.417C361.081 119.99 361.297 119.61 361.578 119.277C361.865 118.943 362.216 118.68 362.633 118.488C363.049 118.29 363.526 118.191 364.062 118.191C364.516 118.191 364.917 118.251 365.266 118.37C365.62 118.49 365.917 118.675 366.156 118.925C366.401 119.17 366.586 119.485 366.711 119.87C366.836 120.256 366.898 120.714 366.898 121.245V126.8H365.445V121.23C365.445 120.756 365.37 120.389 365.219 120.128C365.073 119.863 364.865 119.678 364.594 119.573C364.328 119.464 364.01 119.409 363.641 119.409C363.323 119.409 363.042 119.464 362.797 119.573C362.552 119.683 362.346 119.834 362.18 120.027C362.013 120.214 361.885 120.43 361.797 120.675C361.714 120.92 361.672 121.18 361.672 121.456ZM374.07 125.355V121.003C374.07 120.67 374.003 120.381 373.867 120.136C373.737 119.886 373.539 119.693 373.273 119.558C373.008 119.422 372.68 119.355 372.289 119.355C371.924 119.355 371.604 119.417 371.328 119.542C371.057 119.667 370.844 119.831 370.688 120.034C370.536 120.238 370.461 120.456 370.461 120.691H369.016C369.016 120.389 369.094 120.089 369.25 119.792C369.406 119.495 369.63 119.227 369.922 118.988C370.219 118.743 370.573 118.55 370.984 118.409C371.401 118.264 371.865 118.191 372.375 118.191C372.99 118.191 373.531 118.295 374 118.503C374.474 118.712 374.844 119.027 375.109 119.448C375.38 119.865 375.516 120.389 375.516 121.019V124.956C375.516 125.238 375.539 125.537 375.586 125.855C375.638 126.172 375.714 126.446 375.812 126.675V126.8H374.305C374.232 126.633 374.174 126.412 374.133 126.136C374.091 125.855 374.07 125.594 374.07 125.355ZM374.32 121.675L374.336 122.691H372.875C372.464 122.691 372.096 122.725 371.773 122.792C371.451 122.855 371.18 122.951 370.961 123.081C370.742 123.212 370.576 123.376 370.461 123.573C370.346 123.766 370.289 123.993 370.289 124.253C370.289 124.519 370.349 124.761 370.469 124.98C370.589 125.198 370.768 125.373 371.008 125.503C371.253 125.628 371.552 125.691 371.906 125.691C372.349 125.691 372.74 125.597 373.078 125.409C373.417 125.222 373.685 124.993 373.883 124.722C374.086 124.451 374.195 124.188 374.211 123.933L374.828 124.628C374.792 124.847 374.693 125.089 374.531 125.355C374.37 125.62 374.154 125.876 373.883 126.12C373.617 126.36 373.299 126.56 372.93 126.722C372.565 126.878 372.154 126.956 371.695 126.956C371.122 126.956 370.62 126.844 370.188 126.62C369.76 126.396 369.427 126.097 369.188 125.722C368.953 125.342 368.836 124.917 368.836 124.448C368.836 123.995 368.924 123.597 369.102 123.253C369.279 122.904 369.534 122.615 369.867 122.386C370.201 122.152 370.602 121.975 371.07 121.855C371.539 121.735 372.062 121.675 372.641 121.675H374.32ZM379.359 118.347V126.8H377.906V118.347H379.359ZM377.797 116.105C377.797 115.87 377.867 115.672 378.008 115.511C378.154 115.35 378.367 115.269 378.648 115.269C378.924 115.269 379.135 115.35 379.281 115.511C379.432 115.672 379.508 115.87 379.508 116.105C379.508 116.329 379.432 116.521 379.281 116.683C379.135 116.839 378.924 116.917 378.648 116.917C378.367 116.917 378.154 116.839 378.008 116.683C377.867 116.521 377.797 116.329 377.797 116.105ZM383.125 120.152V126.8H381.68V118.347H383.047L383.125 120.152ZM382.781 122.253L382.18 122.23C382.185 121.652 382.271 121.118 382.438 120.628C382.604 120.133 382.839 119.704 383.141 119.339C383.443 118.975 383.802 118.693 384.219 118.495C384.641 118.292 385.107 118.191 385.617 118.191C386.034 118.191 386.409 118.248 386.742 118.363C387.076 118.472 387.359 118.649 387.594 118.894C387.833 119.139 388.016 119.456 388.141 119.847C388.266 120.232 388.328 120.704 388.328 121.261V126.8H386.875V121.245C386.875 120.803 386.81 120.448 386.68 120.183C386.549 119.912 386.359 119.717 386.109 119.597C385.859 119.472 385.552 119.409 385.188 119.409C384.828 119.409 384.5 119.485 384.203 119.636C383.911 119.787 383.659 119.995 383.445 120.261C383.237 120.527 383.073 120.831 382.953 121.175C382.839 121.514 382.781 121.873 382.781 122.253ZM394.062 118.347V119.456H389.492V118.347H394.062ZM391.039 116.292H392.484V124.706C392.484 124.993 392.529 125.209 392.617 125.355C392.706 125.501 392.82 125.597 392.961 125.644C393.102 125.691 393.253 125.714 393.414 125.714C393.534 125.714 393.659 125.704 393.789 125.683C393.924 125.657 394.026 125.636 394.094 125.62L394.102 126.8C393.987 126.837 393.836 126.87 393.648 126.902C393.466 126.938 393.245 126.956 392.984 126.956C392.63 126.956 392.305 126.886 392.008 126.745C391.711 126.605 391.474 126.37 391.297 126.042C391.125 125.709 391.039 125.261 391.039 124.698V116.292ZM400.742 125.355V121.003C400.742 120.67 400.674 120.381 400.539 120.136C400.409 119.886 400.211 119.693 399.945 119.558C399.68 119.422 399.352 119.355 398.961 119.355C398.596 119.355 398.276 119.417 398 119.542C397.729 119.667 397.516 119.831 397.359 120.034C397.208 120.238 397.133 120.456 397.133 120.691H395.688C395.688 120.389 395.766 120.089 395.922 119.792C396.078 119.495 396.302 119.227 396.594 118.988C396.891 118.743 397.245 118.55 397.656 118.409C398.073 118.264 398.536 118.191 399.047 118.191C399.661 118.191 400.203 118.295 400.672 118.503C401.146 118.712 401.516 119.027 401.781 119.448C402.052 119.865 402.188 120.389 402.188 121.019V124.956C402.188 125.238 402.211 125.537 402.258 125.855C402.31 126.172 402.385 126.446 402.484 126.675V126.8H400.977C400.904 126.633 400.846 126.412 400.805 126.136C400.763 125.855 400.742 125.594 400.742 125.355ZM400.992 121.675L401.008 122.691H399.547C399.135 122.691 398.768 122.725 398.445 122.792C398.122 122.855 397.852 122.951 397.633 123.081C397.414 123.212 397.247 123.376 397.133 123.573C397.018 123.766 396.961 123.993 396.961 124.253C396.961 124.519 397.021 124.761 397.141 124.98C397.26 125.198 397.44 125.373 397.68 125.503C397.924 125.628 398.224 125.691 398.578 125.691C399.021 125.691 399.411 125.597 399.75 125.409C400.089 125.222 400.357 124.993 400.555 124.722C400.758 124.451 400.867 124.188 400.883 123.933L401.5 124.628C401.464 124.847 401.365 125.089 401.203 125.355C401.042 125.62 400.826 125.876 400.555 126.12C400.289 126.36 399.971 126.56 399.602 126.722C399.237 126.878 398.826 126.956 398.367 126.956C397.794 126.956 397.292 126.844 396.859 126.62C396.432 126.396 396.099 126.097 395.859 125.722C395.625 125.342 395.508 124.917 395.508 124.448C395.508 123.995 395.596 123.597 395.773 123.253C395.951 122.904 396.206 122.615 396.539 122.386C396.872 122.152 397.273 121.975 397.742 121.855C398.211 121.735 398.734 121.675 399.312 121.675H400.992ZM406.031 118.347V126.8H404.578V118.347H406.031ZM404.469 116.105C404.469 115.87 404.539 115.672 404.68 115.511C404.826 115.35 405.039 115.269 405.32 115.269C405.596 115.269 405.807 115.35 405.953 115.511C406.104 115.672 406.18 115.87 406.18 116.105C406.18 116.329 406.104 116.521 405.953 116.683C405.807 116.839 405.596 116.917 405.32 116.917C405.039 116.917 404.826 116.839 404.68 116.683C404.539 116.521 404.469 116.329 404.469 116.105ZM409.797 120.152V126.8H408.352V118.347H409.719L409.797 120.152ZM409.453 122.253L408.852 122.23C408.857 121.652 408.943 121.118 409.109 120.628C409.276 120.133 409.51 119.704 409.812 119.339C410.115 118.975 410.474 118.693 410.891 118.495C411.312 118.292 411.779 118.191 412.289 118.191C412.706 118.191 413.081 118.248 413.414 118.363C413.747 118.472 414.031 118.649 414.266 118.894C414.505 119.139 414.688 119.456 414.812 119.847C414.938 120.232 415 120.704 415 121.261V126.8H413.547V121.245C413.547 120.803 413.482 120.448 413.352 120.183C413.221 119.912 413.031 119.717 412.781 119.597C412.531 119.472 412.224 119.409 411.859 119.409C411.5 119.409 411.172 119.485 410.875 119.636C410.583 119.787 410.331 119.995 410.117 120.261C409.909 120.527 409.745 120.831 409.625 121.175C409.51 121.514 409.453 121.873 409.453 122.253ZM418.766 118.347V126.8H417.312V118.347H418.766ZM417.203 116.105C417.203 115.87 417.273 115.672 417.414 115.511C417.56 115.35 417.773 115.269 418.055 115.269C418.331 115.269 418.542 115.35 418.688 115.511C418.839 115.672 418.914 115.87 418.914 116.105C418.914 116.329 418.839 116.521 418.688 116.683C418.542 116.839 418.331 116.917 418.055 116.917C417.773 116.917 417.56 116.839 417.414 116.683C417.273 116.521 417.203 116.329 417.203 116.105ZM422.531 120.152V126.8H421.086V118.347H422.453L422.531 120.152ZM422.188 122.253L421.586 122.23C421.591 121.652 421.677 121.118 421.844 120.628C422.01 120.133 422.245 119.704 422.547 119.339C422.849 118.975 423.208 118.693 423.625 118.495C424.047 118.292 424.513 118.191 425.023 118.191C425.44 118.191 425.815 118.248 426.148 118.363C426.482 118.472 426.766 118.649 427 118.894C427.24 119.139 427.422 119.456 427.547 119.847C427.672 120.232 427.734 120.704 427.734 121.261V126.8H426.281V121.245C426.281 120.803 426.216 120.448 426.086 120.183C425.956 119.912 425.766 119.717 425.516 119.597C425.266 119.472 424.958 119.409 424.594 119.409C424.234 119.409 423.906 119.485 423.609 119.636C423.318 119.787 423.065 119.995 422.852 120.261C422.643 120.527 422.479 120.831 422.359 121.175C422.245 121.514 422.188 121.873 422.188 122.253ZM435.406 118.347H436.719V126.62C436.719 127.365 436.568 128.001 436.266 128.527C435.964 129.053 435.542 129.451 435 129.722C434.464 129.998 433.844 130.136 433.141 130.136C432.849 130.136 432.505 130.089 432.109 129.995C431.719 129.907 431.333 129.753 430.953 129.534C430.578 129.321 430.263 129.032 430.008 128.667L430.766 127.808C431.12 128.235 431.49 128.532 431.875 128.698C432.266 128.865 432.651 128.948 433.031 128.948C433.49 128.948 433.885 128.863 434.219 128.691C434.552 128.519 434.81 128.264 434.992 127.925C435.18 127.592 435.273 127.18 435.273 126.691V120.206L435.406 118.347ZM429.586 122.667V122.503C429.586 121.857 429.661 121.271 429.812 120.745C429.969 120.214 430.19 119.758 430.477 119.378C430.768 118.998 431.12 118.706 431.531 118.503C431.943 118.295 432.406 118.191 432.922 118.191C433.453 118.191 433.917 118.284 434.312 118.472C434.714 118.654 435.052 118.922 435.328 119.277C435.609 119.626 435.831 120.047 435.992 120.542C436.154 121.037 436.266 121.597 436.328 122.222V122.941C436.271 123.56 436.159 124.118 435.992 124.613C435.831 125.107 435.609 125.529 435.328 125.878C435.052 126.227 434.714 126.495 434.312 126.683C433.911 126.865 433.443 126.956 432.906 126.956C432.401 126.956 431.943 126.85 431.531 126.636C431.125 126.422 430.776 126.123 430.484 125.738C430.193 125.352 429.969 124.899 429.812 124.378C429.661 123.852 429.586 123.282 429.586 122.667ZM431.031 122.503V122.667C431.031 123.089 431.073 123.485 431.156 123.855C431.245 124.225 431.378 124.55 431.555 124.831C431.737 125.113 431.969 125.334 432.25 125.495C432.531 125.652 432.867 125.73 433.258 125.73C433.737 125.73 434.133 125.628 434.445 125.425C434.758 125.222 435.005 124.954 435.188 124.62C435.375 124.287 435.521 123.925 435.625 123.534V121.652C435.568 121.365 435.479 121.089 435.359 120.823C435.245 120.553 435.094 120.313 434.906 120.105C434.724 119.891 434.497 119.722 434.227 119.597C433.956 119.472 433.638 119.409 433.273 119.409C432.878 119.409 432.536 119.493 432.25 119.659C431.969 119.821 431.737 120.045 431.555 120.331C431.378 120.613 431.245 120.941 431.156 121.316C431.073 121.685 431.031 122.081 431.031 122.503ZM448.359 118.347H449.672V126.62C449.672 127.365 449.521 128.001 449.219 128.527C448.917 129.053 448.495 129.451 447.953 129.722C447.417 129.998 446.797 130.136 446.094 130.136C445.802 130.136 445.458 130.089 445.062 129.995C444.672 129.907 444.286 129.753 443.906 129.534C443.531 129.321 443.216 129.032 442.961 128.667L443.719 127.808C444.073 128.235 444.443 128.532 444.828 128.698C445.219 128.865 445.604 128.948 445.984 128.948C446.443 128.948 446.839 128.863 447.172 128.691C447.505 128.519 447.763 128.264 447.945 127.925C448.133 127.592 448.227 127.18 448.227 126.691V120.206L448.359 118.347ZM442.539 122.667V122.503C442.539 121.857 442.615 121.271 442.766 120.745C442.922 120.214 443.143 119.758 443.43 119.378C443.721 118.998 444.073 118.706 444.484 118.503C444.896 118.295 445.359 118.191 445.875 118.191C446.406 118.191 446.87 118.284 447.266 118.472C447.667 118.654 448.005 118.922 448.281 119.277C448.562 119.626 448.784 120.047 448.945 120.542C449.107 121.037 449.219 121.597 449.281 122.222V122.941C449.224 123.56 449.112 124.118 448.945 124.613C448.784 125.107 448.562 125.529 448.281 125.878C448.005 126.227 447.667 126.495 447.266 126.683C446.865 126.865 446.396 126.956 445.859 126.956C445.354 126.956 444.896 126.85 444.484 126.636C444.078 126.422 443.729 126.123 443.438 125.738C443.146 125.352 442.922 124.899 442.766 124.378C442.615 123.852 442.539 123.282 442.539 122.667ZM443.984 122.503V122.667C443.984 123.089 444.026 123.485 444.109 123.855C444.198 124.225 444.331 124.55 444.508 124.831C444.69 125.113 444.922 125.334 445.203 125.495C445.484 125.652 445.82 125.73 446.211 125.73C446.69 125.73 447.086 125.628 447.398 125.425C447.711 125.222 447.958 124.954 448.141 124.62C448.328 124.287 448.474 123.925 448.578 123.534V121.652C448.521 121.365 448.432 121.089 448.312 120.823C448.198 120.553 448.047 120.313 447.859 120.105C447.677 119.891 447.451 119.722 447.18 119.597C446.909 119.472 446.591 119.409 446.227 119.409C445.831 119.409 445.49 119.493 445.203 119.659C444.922 119.821 444.69 120.045 444.508 120.331C444.331 120.613 444.198 120.941 444.109 121.316C444.026 121.685 443.984 122.081 443.984 122.503ZM453.312 119.675V126.8H451.867V118.347H453.273L453.312 119.675ZM455.953 118.3L455.945 119.644C455.826 119.618 455.711 119.602 455.602 119.597C455.497 119.587 455.378 119.581 455.242 119.581C454.909 119.581 454.615 119.633 454.359 119.738C454.104 119.842 453.888 119.988 453.711 120.175C453.534 120.363 453.393 120.587 453.289 120.847C453.19 121.102 453.125 121.383 453.094 121.691L452.688 121.925C452.688 121.415 452.737 120.935 452.836 120.488C452.94 120.04 453.099 119.644 453.312 119.3C453.526 118.951 453.797 118.68 454.125 118.488C454.458 118.29 454.854 118.191 455.312 118.191C455.417 118.191 455.536 118.204 455.672 118.23C455.807 118.251 455.901 118.274 455.953 118.3ZM458.859 118.347V126.8H457.406V118.347H458.859ZM457.297 116.105C457.297 115.87 457.367 115.672 457.508 115.511C457.654 115.35 457.867 115.269 458.148 115.269C458.424 115.269 458.635 115.35 458.781 115.511C458.932 115.672 459.008 115.87 459.008 116.105C459.008 116.329 458.932 116.521 458.781 116.683C458.635 116.839 458.424 116.917 458.148 116.917C457.867 116.917 457.654 116.839 457.508 116.683C457.367 116.521 457.297 116.329 457.297 116.105ZM462.625 119.972V130.05H461.172V118.347H462.5L462.625 119.972ZM468.32 122.503V122.667C468.32 123.282 468.247 123.852 468.102 124.378C467.956 124.899 467.742 125.352 467.461 125.738C467.185 126.123 466.844 126.422 466.438 126.636C466.031 126.85 465.565 126.956 465.039 126.956C464.503 126.956 464.029 126.868 463.617 126.691C463.206 126.514 462.857 126.256 462.57 125.917C462.284 125.579 462.055 125.172 461.883 124.698C461.716 124.225 461.602 123.691 461.539 123.097V122.222C461.602 121.597 461.719 121.037 461.891 120.542C462.062 120.047 462.289 119.626 462.57 119.277C462.857 118.922 463.203 118.654 463.609 118.472C464.016 118.284 464.484 118.191 465.016 118.191C465.547 118.191 466.018 118.295 466.43 118.503C466.841 118.706 467.188 118.998 467.469 119.378C467.75 119.758 467.961 120.214 468.102 120.745C468.247 121.271 468.32 121.857 468.32 122.503ZM466.867 122.667V122.503C466.867 122.081 466.823 121.685 466.734 121.316C466.646 120.941 466.508 120.613 466.32 120.331C466.138 120.045 465.904 119.821 465.617 119.659C465.331 119.493 464.99 119.409 464.594 119.409C464.229 119.409 463.911 119.472 463.641 119.597C463.375 119.722 463.148 119.891 462.961 120.105C462.773 120.313 462.62 120.553 462.5 120.823C462.385 121.089 462.299 121.365 462.242 121.652V123.675C462.346 124.04 462.492 124.383 462.68 124.706C462.867 125.024 463.117 125.282 463.43 125.48C463.742 125.672 464.135 125.769 464.609 125.769C465 125.769 465.336 125.688 465.617 125.527C465.904 125.36 466.138 125.133 466.32 124.847C466.508 124.56 466.646 124.232 466.734 123.863C466.823 123.488 466.867 123.089 466.867 122.667ZM471.477 125.081V126.245C471.477 126.719 471.357 127.219 471.117 127.745C470.878 128.277 470.542 128.719 470.109 129.073L469.289 128.503C469.456 128.274 469.596 128.04 469.711 127.8C469.826 127.566 469.911 127.321 469.969 127.066C470.031 126.816 470.062 126.55 470.062 126.269V125.081H471.477ZM17.0938 133.8H18.5469V144.159L18.4219 145.8H17.0938V133.8ZM24.2578 141.503V141.667C24.2578 142.282 24.1849 142.852 24.0391 143.378C23.8932 143.899 23.6797 144.352 23.3984 144.738C23.1172 145.123 22.7734 145.422 22.3672 145.636C21.9609 145.85 21.4948 145.956 20.9688 145.956C20.4323 145.956 19.9609 145.865 19.5547 145.683C19.1536 145.495 18.8151 145.227 18.5391 144.878C18.263 144.529 18.0417 144.107 17.875 143.613C17.7135 143.118 17.6016 142.56 17.5391 141.941V141.222C17.6016 140.597 17.7135 140.037 17.875 139.542C18.0417 139.047 18.263 138.626 18.5391 138.277C18.8151 137.922 19.1536 137.654 19.5547 137.472C19.9557 137.284 20.4219 137.191 20.9531 137.191C21.4844 137.191 21.9557 137.295 22.3672 137.503C22.7786 137.706 23.1224 137.998 23.3984 138.378C23.6797 138.758 23.8932 139.214 24.0391 139.745C24.1849 140.271 24.2578 140.857 24.2578 141.503ZM22.8047 141.667V141.503C22.8047 141.081 22.7656 140.685 22.6875 140.316C22.6094 139.941 22.4844 139.613 22.3125 139.331C22.1406 139.045 21.9141 138.821 21.6328 138.659C21.3516 138.493 21.0052 138.409 20.5938 138.409C20.2292 138.409 19.9115 138.472 19.6406 138.597C19.375 138.722 19.1484 138.891 18.9609 139.105C18.7734 139.313 18.6198 139.553 18.5 139.823C18.3854 140.089 18.2995 140.365 18.2422 140.652V142.534C18.3255 142.899 18.4609 143.251 18.6484 143.589C18.8411 143.922 19.0964 144.196 19.4141 144.409C19.737 144.623 20.1354 144.73 20.6094 144.73C21 144.73 21.3333 144.652 21.6094 144.495C21.8906 144.334 22.1172 144.113 22.2891 143.831C22.4661 143.55 22.5964 143.225 22.6797 142.855C22.763 142.485 22.8047 142.089 22.8047 141.667ZM31.0703 144.355V140.003C31.0703 139.67 31.0026 139.381 30.8672 139.136C30.737 138.886 30.5391 138.693 30.2734 138.558C30.0078 138.422 29.6797 138.355 29.2891 138.355C28.9245 138.355 28.6042 138.417 28.3281 138.542C28.0573 138.667 27.8438 138.831 27.6875 139.034C27.5365 139.238 27.4609 139.456 27.4609 139.691H26.0156C26.0156 139.389 26.0938 139.089 26.25 138.792C26.4062 138.495 26.6302 138.227 26.9219 137.988C27.2188 137.743 27.5729 137.55 27.9844 137.409C28.401 137.264 28.8646 137.191 29.375 137.191C29.9896 137.191 30.5312 137.295 31 137.503C31.474 137.712 31.8438 138.027 32.1094 138.448C32.3802 138.865 32.5156 139.389 32.5156 140.019V143.956C32.5156 144.238 32.5391 144.537 32.5859 144.855C32.638 145.172 32.7135 145.446 32.8125 145.675V145.8H31.3047C31.2318 145.633 31.1745 145.412 31.1328 145.136C31.0911 144.855 31.0703 144.594 31.0703 144.355ZM31.3203 140.675L31.3359 141.691H29.875C29.4635 141.691 29.0964 141.725 28.7734 141.792C28.4505 141.855 28.1797 141.951 27.9609 142.081C27.7422 142.212 27.5755 142.376 27.4609 142.573C27.3464 142.766 27.2891 142.993 27.2891 143.253C27.2891 143.519 27.349 143.761 27.4688 143.98C27.5885 144.198 27.7682 144.373 28.0078 144.503C28.2526 144.628 28.5521 144.691 28.9062 144.691C29.349 144.691 29.7396 144.597 30.0781 144.409C30.4167 144.222 30.6849 143.993 30.8828 143.722C31.0859 143.451 31.1953 143.188 31.2109 142.933L31.8281 143.628C31.7917 143.847 31.6927 144.089 31.5312 144.355C31.3698 144.62 31.1536 144.876 30.8828 145.12C30.6172 145.36 30.2995 145.56 29.9297 145.722C29.5651 145.878 29.1536 145.956 28.6953 145.956C28.1224 145.956 27.6198 145.844 27.1875 145.62C26.7604 145.396 26.4271 145.097 26.1875 144.722C25.9531 144.342 25.8359 143.917 25.8359 143.448C25.8359 142.995 25.9245 142.597 26.1016 142.253C26.2786 141.904 26.5339 141.615 26.8672 141.386C27.2005 141.152 27.6016 140.975 28.0703 140.855C28.5391 140.735 29.0625 140.675 29.6406 140.675H31.3203ZM36.3594 133.8V145.8H34.9062V133.8H36.3594ZM43.6641 144.355V140.003C43.6641 139.67 43.5964 139.381 43.4609 139.136C43.3307 138.886 43.1328 138.693 42.8672 138.558C42.6016 138.422 42.2734 138.355 41.8828 138.355C41.5182 138.355 41.1979 138.417 40.9219 138.542C40.651 138.667 40.4375 138.831 40.2812 139.034C40.1302 139.238 40.0547 139.456 40.0547 139.691H38.6094C38.6094 139.389 38.6875 139.089 38.8438 138.792C39 138.495 39.224 138.227 39.5156 137.988C39.8125 137.743 40.1667 137.55 40.5781 137.409C40.9948 137.264 41.4583 137.191 41.9688 137.191C42.5833 137.191 43.125 137.295 43.5938 137.503C44.0677 137.712 44.4375 138.027 44.7031 138.448C44.974 138.865 45.1094 139.389 45.1094 140.019V143.956C45.1094 144.238 45.1328 144.537 45.1797 144.855C45.2318 145.172 45.3073 145.446 45.4062 145.675V145.8H43.8984C43.8255 145.633 43.7682 145.412 43.7266 145.136C43.6849 144.855 43.6641 144.594 43.6641 144.355ZM43.9141 140.675L43.9297 141.691H42.4688C42.0573 141.691 41.6901 141.725 41.3672 141.792C41.0443 141.855 40.7734 141.951 40.5547 142.081C40.3359 142.212 40.1693 142.376 40.0547 142.573C39.9401 142.766 39.8828 142.993 39.8828 143.253C39.8828 143.519 39.9427 143.761 40.0625 143.98C40.1823 144.198 40.362 144.373 40.6016 144.503C40.8464 144.628 41.1458 144.691 41.5 144.691C41.9427 144.691 42.3333 144.597 42.6719 144.409C43.0104 144.222 43.2786 143.993 43.4766 143.722C43.6797 143.451 43.7891 143.188 43.8047 142.933L44.4219 143.628C44.3854 143.847 44.2865 144.089 44.125 144.355C43.9635 144.62 43.7474 144.876 43.4766 145.12C43.2109 145.36 42.8932 145.56 42.5234 145.722C42.1589 145.878 41.7474 145.956 41.2891 145.956C40.7161 145.956 40.2135 145.844 39.7812 145.62C39.3542 145.396 39.0208 145.097 38.7812 144.722C38.5469 144.342 38.4297 143.917 38.4297 143.448C38.4297 142.995 38.5182 142.597 38.6953 142.253C38.8724 141.904 39.1276 141.615 39.4609 141.386C39.7943 141.152 40.1953 140.975 40.6641 140.855C41.1328 140.735 41.6562 140.675 42.2344 140.675H43.9141ZM48.8281 139.152V145.8H47.3828V137.347H48.75L48.8281 139.152ZM48.4844 141.253L47.8828 141.23C47.888 140.652 47.974 140.118 48.1406 139.628C48.3073 139.133 48.5417 138.704 48.8438 138.339C49.1458 137.975 49.5052 137.693 49.9219 137.495C50.3438 137.292 50.8099 137.191 51.3203 137.191C51.737 137.191 52.112 137.248 52.4453 137.363C52.7786 137.472 53.0625 137.649 53.2969 137.894C53.5365 138.139 53.7188 138.456 53.8438 138.847C53.9688 139.232 54.0312 139.704 54.0312 140.261V145.8H52.5781V140.245C52.5781 139.803 52.513 139.448 52.3828 139.183C52.2526 138.912 52.0625 138.717 51.8125 138.597C51.5625 138.472 51.2552 138.409 50.8906 138.409C50.5312 138.409 50.2031 138.485 49.9062 138.636C49.6146 138.787 49.362 138.995 49.1484 139.261C48.9401 139.527 48.776 139.831 48.6562 140.175C48.5417 140.514 48.4844 140.873 48.4844 141.253ZM59.6094 144.769C59.9531 144.769 60.2708 144.698 60.5625 144.558C60.8542 144.417 61.0938 144.225 61.2812 143.98C61.4688 143.73 61.5755 143.446 61.6016 143.128H62.9766C62.9505 143.628 62.7812 144.094 62.4688 144.527C62.1615 144.954 61.7578 145.3 61.2578 145.566C60.7578 145.826 60.2083 145.956 59.6094 145.956C58.974 145.956 58.4193 145.844 57.9453 145.62C57.4766 145.396 57.0859 145.089 56.7734 144.698C56.4661 144.308 56.2344 143.86 56.0781 143.355C55.9271 142.844 55.8516 142.305 55.8516 141.738V141.409C55.8516 140.842 55.9271 140.305 56.0781 139.8C56.2344 139.29 56.4661 138.839 56.7734 138.448C57.0859 138.058 57.4766 137.751 57.9453 137.527C58.4193 137.303 58.974 137.191 59.6094 137.191C60.2708 137.191 60.849 137.326 61.3438 137.597C61.8385 137.863 62.2266 138.227 62.5078 138.691C62.7943 139.149 62.9505 139.67 62.9766 140.253H61.6016C61.5755 139.904 61.4766 139.589 61.3047 139.308C61.138 139.027 60.9089 138.803 60.6172 138.636C60.3307 138.464 59.9948 138.378 59.6094 138.378C59.1667 138.378 58.7943 138.467 58.4922 138.644C58.1953 138.816 57.9583 139.05 57.7812 139.347C57.6094 139.639 57.4844 139.964 57.4062 140.323C57.3333 140.678 57.2969 141.04 57.2969 141.409V141.738C57.2969 142.107 57.3333 142.472 57.4062 142.831C57.4792 143.191 57.6016 143.516 57.7734 143.808C57.9505 144.1 58.1875 144.334 58.4844 144.511C58.7865 144.683 59.1615 144.769 59.6094 144.769ZM68.1094 145.956C67.5208 145.956 66.987 145.857 66.5078 145.659C66.0339 145.456 65.625 145.172 65.2812 144.808C64.9427 144.443 64.6823 144.011 64.5 143.511C64.3177 143.011 64.2266 142.464 64.2266 141.87V141.542C64.2266 140.855 64.3281 140.243 64.5312 139.706C64.7344 139.165 65.0104 138.706 65.3594 138.331C65.7083 137.956 66.1042 137.672 66.5469 137.48C66.9896 137.287 67.4479 137.191 67.9219 137.191C68.526 137.191 69.0469 137.295 69.4844 137.503C69.9271 137.712 70.2891 138.003 70.5703 138.378C70.8516 138.748 71.0599 139.185 71.1953 139.691C71.3307 140.191 71.3984 140.738 71.3984 141.331V141.98H65.0859V140.8H69.9531V140.691C69.9323 140.316 69.8542 139.951 69.7188 139.597C69.5885 139.243 69.3802 138.951 69.0938 138.722C68.8073 138.493 68.4167 138.378 67.9219 138.378C67.5938 138.378 67.2917 138.448 67.0156 138.589C66.7396 138.725 66.5026 138.928 66.3047 139.198C66.1068 139.469 65.9531 139.8 65.8438 140.191C65.7344 140.581 65.6797 141.032 65.6797 141.542V141.87C65.6797 142.271 65.7344 142.649 65.8438 143.003C65.9583 143.352 66.1224 143.659 66.3359 143.925C66.5547 144.191 66.8177 144.399 67.125 144.55C67.4375 144.701 67.7917 144.777 68.1875 144.777C68.6979 144.777 69.1302 144.672 69.4844 144.464C69.8385 144.256 70.1484 143.977 70.4141 143.628L71.2891 144.323C71.1068 144.6 70.875 144.863 70.5938 145.113C70.3125 145.363 69.9661 145.566 69.5547 145.722C69.1484 145.878 68.6667 145.956 68.1094 145.956ZM74.3984 144.081V145.245C74.3984 145.719 74.2786 146.219 74.0391 146.745C73.7995 147.277 73.4635 147.719 73.0312 148.073L72.2109 147.503C72.3776 147.274 72.5182 147.04 72.6328 146.8C72.7474 146.566 72.8333 146.321 72.8906 146.066C72.9531 145.816 72.9844 145.55 72.9844 145.269V144.081H74.3984ZM85.1953 144.355V140.003C85.1953 139.67 85.1276 139.381 84.9922 139.136C84.862 138.886 84.6641 138.693 84.3984 138.558C84.1328 138.422 83.8047 138.355 83.4141 138.355C83.0495 138.355 82.7292 138.417 82.4531 138.542C82.1823 138.667 81.9688 138.831 81.8125 139.034C81.6615 139.238 81.5859 139.456 81.5859 139.691H80.1406C80.1406 139.389 80.2188 139.089 80.375 138.792C80.5312 138.495 80.7552 138.227 81.0469 137.988C81.3438 137.743 81.6979 137.55 82.1094 137.409C82.526 137.264 82.9896 137.191 83.5 137.191C84.1146 137.191 84.6562 137.295 85.125 137.503C85.599 137.712 85.9688 138.027 86.2344 138.448C86.5052 138.865 86.6406 139.389 86.6406 140.019V143.956C86.6406 144.238 86.6641 144.537 86.7109 144.855C86.763 145.172 86.8385 145.446 86.9375 145.675V145.8H85.4297C85.3568 145.633 85.2995 145.412 85.2578 145.136C85.2161 144.855 85.1953 144.594 85.1953 144.355ZM85.4453 140.675L85.4609 141.691H84C83.5885 141.691 83.2214 141.725 82.8984 141.792C82.5755 141.855 82.3047 141.951 82.0859 142.081C81.8672 142.212 81.7005 142.376 81.5859 142.573C81.4714 142.766 81.4141 142.993 81.4141 143.253C81.4141 143.519 81.474 143.761 81.5938 143.98C81.7135 144.198 81.8932 144.373 82.1328 144.503C82.3776 144.628 82.6771 144.691 83.0312 144.691C83.474 144.691 83.8646 144.597 84.2031 144.409C84.5417 144.222 84.8099 143.993 85.0078 143.722C85.2109 143.451 85.3203 143.188 85.3359 142.933L85.9531 143.628C85.9167 143.847 85.8177 144.089 85.6562 144.355C85.4948 144.62 85.2786 144.876 85.0078 145.12C84.7422 145.36 84.4245 145.56 84.0547 145.722C83.6901 145.878 83.2786 145.956 82.8203 145.956C82.2474 145.956 81.7448 145.844 81.3125 145.62C80.8854 145.396 80.5521 145.097 80.3125 144.722C80.0781 144.342 79.9609 143.917 79.9609 143.448C79.9609 142.995 80.0495 142.597 80.2266 142.253C80.4036 141.904 80.6589 141.615 80.9922 141.386C81.3255 141.152 81.7266 140.975 82.1953 140.855C82.6641 140.735 83.1875 140.675 83.7656 140.675H85.4453ZM90.3594 139.152V145.8H88.9141V137.347H90.2812L90.3594 139.152ZM90.0156 141.253L89.4141 141.23C89.4193 140.652 89.5052 140.118 89.6719 139.628C89.8385 139.133 90.0729 138.704 90.375 138.339C90.6771 137.975 91.0365 137.693 91.4531 137.495C91.875 137.292 92.3411 137.191 92.8516 137.191C93.2682 137.191 93.6432 137.248 93.9766 137.363C94.3099 137.472 94.5938 137.649 94.8281 137.894C95.0677 138.139 95.25 138.456 95.375 138.847C95.5 139.232 95.5625 139.704 95.5625 140.261V145.8H94.1094V140.245C94.1094 139.803 94.0443 139.448 93.9141 139.183C93.7839 138.912 93.5938 138.717 93.3438 138.597C93.0938 138.472 92.7865 138.409 92.4219 138.409C92.0625 138.409 91.7344 138.485 91.4375 138.636C91.1458 138.787 90.8932 138.995 90.6797 139.261C90.4714 139.527 90.3073 139.831 90.1875 140.175C90.0729 140.514 90.0156 140.873 90.0156 141.253ZM103.086 144.159V133.8H104.539V145.8H103.211L103.086 144.159ZM97.3984 141.667V141.503C97.3984 140.857 97.4766 140.271 97.6328 139.745C97.7943 139.214 98.0208 138.758 98.3125 138.378C98.6094 137.998 98.9609 137.706 99.3672 137.503C99.7786 137.295 100.237 137.191 100.742 137.191C101.273 137.191 101.737 137.284 102.133 137.472C102.534 137.654 102.872 137.922 103.148 138.277C103.43 138.626 103.651 139.047 103.812 139.542C103.974 140.037 104.086 140.597 104.148 141.222V141.941C104.091 142.56 103.979 143.118 103.812 143.613C103.651 144.107 103.43 144.529 103.148 144.878C102.872 145.227 102.534 145.495 102.133 145.683C101.732 145.865 101.263 145.956 100.727 145.956C100.232 145.956 99.7786 145.85 99.3672 145.636C98.9609 145.422 98.6094 145.123 98.3125 144.738C98.0208 144.352 97.7943 143.899 97.6328 143.378C97.4766 142.852 97.3984 142.282 97.3984 141.667ZM98.8516 141.503V141.667C98.8516 142.089 98.8932 142.485 98.9766 142.855C99.0651 143.225 99.2005 143.55 99.3828 143.831C99.5651 144.113 99.7969 144.334 100.078 144.495C100.359 144.652 100.695 144.73 101.086 144.73C101.565 144.73 101.958 144.628 102.266 144.425C102.578 144.222 102.828 143.954 103.016 143.62C103.203 143.287 103.349 142.925 103.453 142.534V140.652C103.391 140.365 103.299 140.089 103.18 139.823C103.065 139.553 102.914 139.313 102.727 139.105C102.544 138.891 102.318 138.722 102.047 138.597C101.781 138.472 101.466 138.409 101.102 138.409C100.706 138.409 100.365 138.493 100.078 138.659C99.7969 138.821 99.5651 139.045 99.3828 139.331C99.2005 139.613 99.0651 139.941 98.9766 140.316C98.8932 140.685 98.8516 141.081 98.8516 141.503ZM114.141 144.769C114.484 144.769 114.802 144.698 115.094 144.558C115.385 144.417 115.625 144.225 115.812 143.98C116 143.73 116.107 143.446 116.133 143.128H117.508C117.482 143.628 117.312 144.094 117 144.527C116.693 144.954 116.289 145.3 115.789 145.566C115.289 145.826 114.74 145.956 114.141 145.956C113.505 145.956 112.951 145.844 112.477 145.62C112.008 145.396 111.617 145.089 111.305 144.698C110.997 144.308 110.766 143.86 110.609 143.355C110.458 142.844 110.383 142.305 110.383 141.738V141.409C110.383 140.842 110.458 140.305 110.609 139.8C110.766 139.29 110.997 138.839 111.305 138.448C111.617 138.058 112.008 137.751 112.477 137.527C112.951 137.303 113.505 137.191 114.141 137.191C114.802 137.191 115.38 137.326 115.875 137.597C116.37 137.863 116.758 138.227 117.039 138.691C117.326 139.149 117.482 139.67 117.508 140.253H116.133C116.107 139.904 116.008 139.589 115.836 139.308C115.669 139.027 115.44 138.803 115.148 138.636C114.862 138.464 114.526 138.378 114.141 138.378C113.698 138.378 113.326 138.467 113.023 138.644C112.727 138.816 112.49 139.05 112.312 139.347C112.141 139.639 112.016 139.964 111.938 140.323C111.865 140.678 111.828 141.04 111.828 141.409V141.738C111.828 142.107 111.865 142.472 111.938 142.831C112.01 143.191 112.133 143.516 112.305 143.808C112.482 144.1 112.719 144.334 113.016 144.511C113.318 144.683 113.693 144.769 114.141 144.769ZM118.75 141.667V141.488C118.75 140.878 118.839 140.313 119.016 139.792C119.193 139.266 119.448 138.81 119.781 138.425C120.115 138.034 120.518 137.732 120.992 137.519C121.466 137.3 121.997 137.191 122.586 137.191C123.18 137.191 123.714 137.3 124.188 137.519C124.667 137.732 125.073 138.034 125.406 138.425C125.745 138.81 126.003 139.266 126.18 139.792C126.357 140.313 126.445 140.878 126.445 141.488V141.667C126.445 142.277 126.357 142.842 126.18 143.363C126.003 143.883 125.745 144.339 125.406 144.73C125.073 145.115 124.669 145.417 124.195 145.636C123.727 145.85 123.195 145.956 122.602 145.956C122.008 145.956 121.474 145.85 121 145.636C120.526 145.417 120.12 145.115 119.781 144.73C119.448 144.339 119.193 143.883 119.016 143.363C118.839 142.842 118.75 142.277 118.75 141.667ZM120.195 141.488V141.667C120.195 142.089 120.245 142.488 120.344 142.863C120.443 143.232 120.591 143.56 120.789 143.847C120.992 144.133 121.245 144.36 121.547 144.527C121.849 144.688 122.201 144.769 122.602 144.769C122.997 144.769 123.344 144.688 123.641 144.527C123.943 144.36 124.193 144.133 124.391 143.847C124.589 143.56 124.737 143.232 124.836 142.863C124.94 142.488 124.992 142.089 124.992 141.667V141.488C124.992 141.071 124.94 140.678 124.836 140.308C124.737 139.933 124.586 139.602 124.383 139.316C124.185 139.024 123.935 138.795 123.633 138.628C123.336 138.462 122.987 138.378 122.586 138.378C122.19 138.378 121.841 138.462 121.539 138.628C121.242 138.795 120.992 139.024 120.789 139.316C120.591 139.602 120.443 139.933 120.344 140.308C120.245 140.678 120.195 141.071 120.195 141.488ZM129.703 139.152V145.8H128.258V137.347H129.625L129.703 139.152ZM129.359 141.253L128.758 141.23C128.763 140.652 128.849 140.118 129.016 139.628C129.182 139.133 129.417 138.704 129.719 138.339C130.021 137.975 130.38 137.693 130.797 137.495C131.219 137.292 131.685 137.191 132.195 137.191C132.612 137.191 132.987 137.248 133.32 137.363C133.654 137.472 133.938 137.649 134.172 137.894C134.411 138.139 134.594 138.456 134.719 138.847C134.844 139.232 134.906 139.704 134.906 140.261V145.8H133.453V140.245C133.453 139.803 133.388 139.448 133.258 139.183C133.128 138.912 132.938 138.717 132.688 138.597C132.438 138.472 132.13 138.409 131.766 138.409C131.406 138.409 131.078 138.485 130.781 138.636C130.49 138.787 130.237 138.995 130.023 139.261C129.815 139.527 129.651 139.831 129.531 140.175C129.417 140.514 129.359 140.873 129.359 141.253ZM140.641 137.347V138.456H136.07V137.347H140.641ZM137.617 135.292H139.062V143.706C139.062 143.993 139.107 144.209 139.195 144.355C139.284 144.501 139.398 144.597 139.539 144.644C139.68 144.691 139.831 144.714 139.992 144.714C140.112 144.714 140.237 144.704 140.367 144.683C140.503 144.657 140.604 144.636 140.672 144.62L140.68 145.8C140.565 145.837 140.414 145.87 140.227 145.902C140.044 145.938 139.823 145.956 139.562 145.956C139.208 145.956 138.883 145.886 138.586 145.745C138.289 145.605 138.052 145.37 137.875 145.042C137.703 144.709 137.617 144.261 137.617 143.698V135.292ZM143.781 138.675V145.8H142.336V137.347H143.742L143.781 138.675ZM146.422 137.3L146.414 138.644C146.294 138.618 146.18 138.602 146.07 138.597C145.966 138.587 145.846 138.581 145.711 138.581C145.378 138.581 145.083 138.633 144.828 138.738C144.573 138.842 144.357 138.988 144.18 139.175C144.003 139.363 143.862 139.587 143.758 139.847C143.659 140.102 143.594 140.383 143.562 140.691L143.156 140.925C143.156 140.415 143.206 139.935 143.305 139.488C143.409 139.04 143.568 138.644 143.781 138.3C143.995 137.951 144.266 137.68 144.594 137.488C144.927 137.29 145.323 137.191 145.781 137.191C145.885 137.191 146.005 137.204 146.141 137.23C146.276 137.251 146.37 137.274 146.422 137.3ZM147.219 141.667V141.488C147.219 140.878 147.307 140.313 147.484 139.792C147.661 139.266 147.917 138.81 148.25 138.425C148.583 138.034 148.987 137.732 149.461 137.519C149.935 137.3 150.466 137.191 151.055 137.191C151.648 137.191 152.182 137.3 152.656 137.519C153.135 137.732 153.542 138.034 153.875 138.425C154.214 138.81 154.471 139.266 154.648 139.792C154.826 140.313 154.914 140.878 154.914 141.488V141.667C154.914 142.277 154.826 142.842 154.648 143.363C154.471 143.883 154.214 144.339 153.875 144.73C153.542 145.115 153.138 145.417 152.664 145.636C152.195 145.85 151.664 145.956 151.07 145.956C150.477 145.956 149.943 145.85 149.469 145.636C148.995 145.417 148.589 145.115 148.25 144.73C147.917 144.339 147.661 143.883 147.484 143.363C147.307 142.842 147.219 142.277 147.219 141.667ZM148.664 141.488V141.667C148.664 142.089 148.714 142.488 148.812 142.863C148.911 143.232 149.06 143.56 149.258 143.847C149.461 144.133 149.714 144.36 150.016 144.527C150.318 144.688 150.669 144.769 151.07 144.769C151.466 144.769 151.812 144.688 152.109 144.527C152.411 144.36 152.661 144.133 152.859 143.847C153.057 143.56 153.206 143.232 153.305 142.863C153.409 142.488 153.461 142.089 153.461 141.667V141.488C153.461 141.071 153.409 140.678 153.305 140.308C153.206 139.933 153.055 139.602 152.852 139.316C152.654 139.024 152.404 138.795 152.102 138.628C151.805 138.462 151.456 138.378 151.055 138.378C150.659 138.378 150.31 138.462 150.008 138.628C149.711 138.795 149.461 139.024 149.258 139.316C149.06 139.602 148.911 139.933 148.812 140.308C148.714 140.678 148.664 141.071 148.664 141.488ZM158.297 133.8V145.8H156.844V133.8H158.297ZM160.641 145.034C160.641 144.79 160.716 144.584 160.867 144.417C161.023 144.245 161.247 144.159 161.539 144.159C161.831 144.159 162.052 144.245 162.203 144.417C162.359 144.584 162.438 144.79 162.438 145.034C162.438 145.274 162.359 145.477 162.203 145.644C162.052 145.81 161.831 145.894 161.539 145.894C161.247 145.894 161.023 145.81 160.867 145.644C160.716 145.477 160.641 145.274 160.641 145.034Z" fill="#F4EFEC"/>
<defs>
<linearGradient id="paint0_linear_198_1000" x1="36" y1="13" x2="36" y2="126.333" gradientUnits="userSpaceOnUse">
<stop stop-color="#FF4A00"/>
<stop offset="1" stop-color="#F4EFEC"/>
</linearGradient>
</defs>
</svg>
